<?xml version="1.0" encoding="UTF-8"?>
<svg xmlns="http://www.w3.org/2000/svg" width="1280" height="640" viewBox="0 0 1280 640" role="img" aria-labelledby="banner-title banner-desc">
  <title id="banner-title">GPT-Series Reasoning Style · GPT 系列推理风格 — Agent Skill</title>
  <desc id="banner-desc">Social preview: a mandatory pre-implementation gate, one single-Agent backbone plus two on-demand collaboration forms (subagent, commander), and evidence-based hands-on acceptance. Version 1.2.0, MIT license.</desc>
  <defs>
    <linearGradient id="bg" x1="0" y1="0" x2="0" y2="1">
      <stop offset="0" stop-color="#0B1020"/>
      <stop offset="1" stop-color="#171233"/>
    </linearGradient>
    <radialGradient id="glowPurple" cx="0.5" cy="0.5" r="0.5">
      <stop offset="0" stop-color="#7C3AED" stop-opacity="0.34"/>
      <stop offset="1" stop-color="#7C3AED" stop-opacity="0"/>
    </radialGradient>
    <radialGradient id="glowCyan" cx="0.5" cy="0.5" r="0.5">
      <stop offset="0" stop-color="#06B6D4" stop-opacity="0.22"/>
      <stop offset="1" stop-color="#06B6D4" stop-opacity="0"/>
    </radialGradient>
  </defs>

  <rect width="1280" height="640" fill="url(#bg)"/>
  <circle cx="1120" cy="80" r="260" fill="url(#glowPurple)"/>
  <circle cx="120" cy="560" r="280" fill="url(#glowCyan)"/>

  <!-- All text is outlined to paths: no viewer fonts needed, renders identically everywhere. -->
    <path d="M413.4 82H409.7L408.6 78.6H403.1L402 82H398.2L403.9 66.6H408ZM407.8 75.9 406.1 70.7Q405.9 70.2 405.9 69.3H405.8Q405.7 70 405.5 70.7L403.8 75.9Z M432 81Q429.8 82.3 426.4 82.3Q422.7 82.3 420.5 80.2Q418.4 78.2 418.4 74.5Q418.4 70.9 420.7 68.6Q423.1 66.3 427 66.3Q429.4 66.3 431.3 67V70.3Q429.5 69.2 426.9 69.2Q424.8 69.2 423.4 70.6Q422.1 72 422.1 74.4Q422.1 76.8 423.3 78.1Q424.5 79.4 426.6 79.4Q427.8 79.4 428.5 79V76H425.5V73.2H432Z M448.2 82H439V66.6H447.9V69.4H442.5V72.8H447.5V75.7H442.5V79.2H448.2Z M468.6 82H465.1L458.7 72.3Q458.2 71.5 458 71H457.9Q458 71.9 458 73.5V82H454.7V66.6H458.5L464.6 76Q465 76.6 465.3 77.2H465.4Q465.3 76.7 465.3 75.1V66.6H468.6Z M486.9 69.4H482.5V82H479V69.4H474.7V66.6H486.9Z M502.3 81.4V78Q503.3 78.8 504.4 79.1Q505.5 79.5 506.6 79.5Q507.2 79.5 507.7 79.4Q508.2 79.3 508.6 79.1Q508.9 78.9 509 78.6Q509.2 78.3 509.2 78Q509.2 77.5 508.9 77.2Q508.7 76.8 508.2 76.5Q507.8 76.2 507.2 75.9Q506.6 75.7 505.9 75.4Q504.1 74.6 503.2 73.5Q502.3 72.5 502.3 70.9Q502.3 69.7 502.8 68.8Q503.3 68 504.1 67.4Q504.9 66.9 506 66.6Q507.1 66.3 508.3 66.3Q509.5 66.3 510.5 66.5Q511.4 66.6 512.2 66.9V70.1Q511.8 69.9 511.3 69.7Q510.9 69.5 510.4 69.3Q509.9 69.2 509.4 69.1Q509 69.1 508.5 69.1Q507.9 69.1 507.5 69.2Q507 69.3 506.6 69.5Q506.3 69.7 506.1 70Q505.9 70.3 505.9 70.6Q505.9 71 506.1 71.3Q506.3 71.6 506.7 71.9Q507.1 72.2 507.6 72.4Q508.2 72.7 508.8 73Q509.8 73.4 510.5 73.8Q511.2 74.2 511.8 74.8Q512.3 75.3 512.6 76Q512.9 76.7 512.9 77.7Q512.9 79 512.4 79.8Q511.9 80.7 511 81.3Q510.2 81.8 509.1 82Q508 82.3 506.7 82.3Q505.5 82.3 504.3 82.1Q503.2 81.8 502.3 81.4Z M532.2 82H527.8L523.3 75.3Q523.2 75.1 522.9 74.5H522.9V82H519.4V66.6H522.9V73.9H522.9Q523 73.6 523.3 73L527.6 66.6H531.7L526.4 73.9Z M541.1 82H537.7V66.6H541.1Z M557.8 82H548.6V66.6H552.1V79.2H557.8Z M573.1 82H563.9V66.6H567.4V79.2H573.1Z M590.4 76.8Q589.5 76.8 589 76.3Q588.4 75.7 588.4 75Q588.4 74.2 589 73.7Q589.6 73.2 590.4 73.2Q591.3 73.2 591.9 73.7Q592.4 74.2 592.4 75Q592.4 75.8 591.8 76.3Q591.3 76.8 590.4 76.8Z M609.2 82V66.6H614.8Q617.4 66.6 618.8 67.5Q620.2 68.5 620.2 70.2Q620.2 71.5 619.3 72.4Q618.5 73.3 617.2 73.7V73.7Q618.8 73.9 619.8 74.9Q620.8 76 620.8 77.4Q620.8 79.5 619.3 80.8Q617.8 82 615.2 82ZM612.7 69.2V72.8H614.2Q615.3 72.8 615.9 72.3Q616.5 71.8 616.5 70.8Q616.5 69.2 614 69.2ZM612.7 75.4V79.4H614.6Q615.8 79.4 616.5 78.9Q617.1 78.3 617.1 77.4Q617.1 76.4 616.5 75.9Q615.8 75.4 614.6 75.4Z M636.6 82H627.3V66.6H636.2V69.4H630.8V72.8H635.8V75.7H630.8V79.2H636.6Z M656.4 82H652.9V75.7H646.5V82H643V66.6H646.5V72.7H652.9V66.6H656.4Z M677.4 82H673.7L672.6 78.6H667.1L666 82H662.2L667.9 66.6H672ZM671.8 75.9 670.1 70.7Q669.9 70.2 669.9 69.3H669.8Q669.7 70 669.5 70.7L667.8 75.9Z M696.2 66.6 690.9 82H687L681.7 66.6H685.5L688.7 77.3Q688.9 78.2 689 78.9H689Q689.1 78.1 689.4 77.3L692.6 66.6Z M705.5 82H702V66.6H705.5Z M719.5 82.3Q716.2 82.3 714.1 80.1Q712 78 712 74.5Q712 70.8 714.2 68.6Q716.3 66.3 719.8 66.3Q723.1 66.3 725.1 68.5Q727.1 70.7 727.1 74.2Q727.1 77.8 725 80Q722.9 82.3 719.5 82.3ZM719.7 69.3Q717.8 69.3 716.8 70.7Q715.7 72.1 715.7 74.3Q715.7 76.6 716.8 77.9Q717.8 79.3 719.6 79.3Q721.4 79.3 722.4 78Q723.5 76.7 723.5 74.4Q723.5 72 722.5 70.7Q721.4 69.3 719.7 69.3Z M746.6 82H742.6L740.2 78Q740 77.6 739.7 77.2Q739.5 76.9 739.2 76.6Q739 76.4 738.7 76.2Q738.4 76.1 738.1 76.1H737.2V82H733.7V66.6H739.2Q744.8 66.6 744.8 70.8Q744.8 71.6 744.6 72.3Q744.3 73 743.9 73.5Q743.4 74.1 742.8 74.4Q742.1 74.8 741.3 75.1V75.1Q741.7 75.2 742 75.5Q742.3 75.7 742.6 76Q742.9 76.3 743.2 76.7Q743.5 77.1 743.7 77.4ZM737.2 69.2V73.5H738.7Q739.8 73.5 740.5 72.8Q741.2 72.2 741.2 71.2Q741.2 69.2 738.7 69.2Z M768.6 82.3Q765.3 82.3 763.2 80.1Q761.2 78 761.2 74.5Q761.2 70.8 763.3 68.6Q765.4 66.3 768.9 66.3Q772.2 66.3 774.2 68.5Q776.3 70.7 776.3 74.2Q776.3 77.8 774.1 80Q772 82.3 768.6 82.3ZM768.8 69.3Q767 69.3 765.9 70.7Q764.8 72.1 764.8 74.3Q764.8 76.6 765.9 77.9Q767 79.3 768.7 79.3Q770.5 79.3 771.5 78Q772.6 76.7 772.6 74.4Q772.6 72 771.6 70.7Q770.6 69.3 768.8 69.3Z M795.6 66.6 790.3 82H786.4L781.2 66.6H784.9L788.1 77.3Q788.4 78.2 788.4 78.9H788.5Q788.6 78.1 788.8 77.3L792 66.6Z M810.7 82H801.5V66.6H810.4V69.4H805V72.8H810V75.7H805V79.2H810.7Z M830.1 82H826.1L823.7 78Q823.5 77.6 823.2 77.2Q823 76.9 822.7 76.6Q822.5 76.4 822.2 76.2Q821.9 76.1 821.6 76.1H820.7V82H817.2V66.6H822.7Q828.3 66.6 828.3 70.8Q828.3 71.6 828.1 72.3Q827.8 73 827.4 73.5Q826.9 74.1 826.3 74.4Q825.6 74.8 824.8 75.1V75.1Q825.2 75.2 825.5 75.5Q825.8 75.7 826.1 76Q826.4 76.3 826.7 76.7Q827 77.1 827.2 77.4ZM820.7 69.2V73.5H822.2Q823.3 73.5 824 72.8Q824.6 72.2 824.6 71.2Q824.6 69.2 822.2 69.2Z M844.7 82H835.6V66.6H839V79.2H844.7Z M864.3 82H860.6L859.5 78.6H854L852.9 82H849.1L854.8 66.6H858.9ZM858.7 75.9 857 70.7Q856.8 70.2 856.8 69.3H856.7Q856.6 70 856.4 70.7L854.7 75.9Z M881.9 66.6 876.9 76.5V82H873.4V76.6L868.5 66.6H872.5L875 72.3Q875 72.5 875.3 73.6H875.4Q875.5 72.8 875.7 72.4L878.2 66.6Z" fill="#22D3EE"/>
  <!-- title: shadow copy + main -->
  <path d="M167.2 168.2Q158.8 173 146.3 173Q132.4 173 124.5 165.3Q116.5 157.7 116.5 144.2Q116.5 130.7 125.2 122.2Q133.9 113.6 148.4 113.6Q157.5 113.6 164.5 116.1V128.3Q157.9 124.4 148.3 124.4Q140.2 124.4 135.1 129.7Q130.1 134.9 130.1 143.6Q130.1 152.5 134.6 157.3Q139.2 162.2 146.9 162.2Q151.5 162.2 154.3 160.8V149.6H142.8V139.3H167.2Z M191.3 152.2V172H178.4V114.6H198.6Q220.3 114.6 220.3 132.9Q220.3 141.5 214.1 146.9Q207.9 152.2 197.5 152.2ZM191.3 124.5V142.4H196.4Q206.7 142.4 206.7 133.4Q206.7 124.5 196.4 124.5Z M269.1 125.1H252.7V172H239.7V125.1H223.4V114.6H269.1Z M297.8 154.5H275.9V145.7H297.8Z M307.3 169.8V157Q310.8 159.9 314.9 161.4Q318.9 162.8 323.1 162.8Q325.6 162.8 327.4 162.4Q329.2 162 330.4 161.2Q331.6 160.4 332.2 159.3Q332.8 158.3 332.8 157Q332.8 155.3 331.9 154Q330.9 152.7 329.3 151.6Q327.6 150.5 325.3 149.4Q323 148.4 320.4 147.3Q313.7 144.5 310.4 140.4Q307.1 136.4 307.1 130.7Q307.1 126.2 308.9 123Q310.7 119.7 313.8 117.7Q316.9 115.6 320.9 114.6Q325 113.6 329.6 113.6Q334.1 113.6 337.5 114.2Q341 114.7 343.9 115.8V127.8Q342.5 126.8 340.8 126Q339.1 125.3 337.3 124.8Q335.5 124.3 333.7 124Q331.9 123.8 330.3 123.8Q328.1 123.8 326.3 124.2Q324.5 124.6 323.3 125.4Q322 126.2 321.3 127.2Q320.7 128.3 320.7 129.6Q320.7 131 321.4 132.2Q322.2 133.3 323.6 134.3Q325 135.4 327 136.3Q329 137.3 331.5 138.4Q335 139.8 337.7 141.4Q340.4 143.1 342.4 145.1Q344.4 147.1 345.4 149.8Q346.5 152.4 346.5 155.9Q346.5 160.7 344.6 163.9Q342.8 167.2 339.7 169.2Q336.6 171.2 332.4 172.1Q328.3 173 323.7 173Q318.9 173 314.7 172.2Q310.4 171.4 307.3 169.8Z M391.5 155.1H364.8Q365.4 164 376 164Q382.8 164 387.9 160.8V170Q382.2 173 373.1 173Q363.2 173 357.7 167.5Q352.2 162 352.2 152.1Q352.2 141.9 358.1 136Q364.1 130 372.7 130Q381.7 130 386.6 135.3Q391.5 140.6 391.5 149.8ZM379.8 147.3Q379.8 138.5 372.6 138.5Q369.6 138.5 367.4 141Q365.2 143.6 364.7 147.3Z M425.8 142.4Q423.5 141.2 420.4 141.2Q416.3 141.2 414 144.2Q411.7 147.2 411.7 152.4V172H399V131H411.7V138.6H411.8Q414.8 130.3 422.6 130.3Q424.6 130.3 425.8 130.8Z M438.1 124.5Q434.9 124.5 432.8 122.6Q430.8 120.7 430.8 117.9Q430.8 115.1 432.8 113.3Q434.9 111.5 438.1 111.5Q441.3 111.5 443.3 113.3Q445.4 115.1 445.4 117.9Q445.4 120.8 443.3 122.7Q441.3 124.5 438.1 124.5ZM444.3 172H431.7V131H444.3Z M491.8 155.1H465Q465.7 164 476.3 164Q483.1 164 488.2 160.8V170Q482.5 173 473.4 173Q463.5 173 458 167.5Q452.5 162 452.5 152.1Q452.5 141.9 458.4 136Q464.4 130 473 130Q482 130 486.9 135.3Q491.8 140.6 491.8 149.8ZM480.1 147.3Q480.1 138.5 472.9 138.5Q469.9 138.5 467.7 141Q465.4 143.6 465 147.3Z M496.6 170.9V160.7Q499.8 162.6 502.9 163.5Q506 164.4 508.7 164.4Q512.1 164.4 514 163.5Q516 162.6 516 160.7Q516 159.5 515.1 158.7Q514.2 157.9 512.8 157.3Q511.5 156.7 509.8 156.2Q508.2 155.7 506.6 155.1Q504.2 154.2 502.3 153.1Q500.5 152.1 499.2 150.7Q498 149.3 497.3 147.4Q496.6 145.6 496.6 143.1Q496.6 139.6 498.1 137.1Q499.6 134.6 502.1 133.1Q504.6 131.5 507.9 130.7Q511.1 130 514.6 130Q517.3 130 520.1 130.4Q522.9 130.8 525.6 131.6V141.4Q523.2 140 520.5 139.3Q517.7 138.6 515.1 138.6Q513.9 138.6 512.8 138.8Q511.7 139 510.8 139.5Q510 139.9 509.5 140.5Q509 141.2 509 142.1Q509 143.2 509.7 144Q510.5 144.8 511.6 145.4Q512.8 145.9 514.2 146.4Q515.6 146.9 517 147.3Q519.5 148.2 521.6 149.3Q523.6 150.3 525.1 151.7Q526.5 153.1 527.3 155Q528.1 156.9 528.1 159.5Q528.1 163.1 526.5 165.7Q524.9 168.3 522.3 169.9Q519.7 171.5 516.3 172.3Q512.9 173 509.2 173Q502.4 173 496.6 170.9Z M607.4 172H592.6L583.6 157.2Q582.6 155.5 581.7 154.2Q580.8 152.9 579.9 152Q578.9 151 577.9 150.5Q576.9 150 575.7 150H572.2V172H559.3V114.6H579.8Q600.7 114.6 600.7 130.2Q600.7 133.2 599.7 135.7Q598.8 138.3 597.1 140.3Q595.5 142.4 593.1 143.9Q590.7 145.3 587.8 146.2V146.3Q589.1 146.7 590.3 147.6Q591.5 148.5 592.6 149.7Q593.7 150.9 594.7 152.3Q595.7 153.7 596.6 155ZM572.2 124.3V140.2H577.8Q582 140.2 584.5 137.8Q587 135.4 587 131.8Q587 124.3 578 124.3Z M648.4 155.1H621.6Q622.3 164 632.9 164Q639.7 164 644.8 160.8V170Q639.1 173 630 173Q620.1 173 614.6 167.5Q609.1 162 609.1 152.1Q609.1 141.9 615 136Q621 130 629.6 130Q638.6 130 643.5 135.3Q648.4 140.6 648.4 149.8ZM636.7 147.3Q636.7 138.5 629.5 138.5Q626.5 138.5 624.3 141Q622 143.6 621.6 147.3Z M690 172H678.1V166.1H677.9Q673.8 173 665.7 173Q659.7 173 656.3 169.6Q652.9 166.2 652.9 160.6Q652.9 148.7 667 146.8L678.1 145.3Q678.1 138.6 670.9 138.6Q663.5 138.6 656.9 143V133.4Q659.6 132.1 664.1 131Q668.7 130 672.5 130Q690 130 690 147.5ZM678.1 155.3V152.6L670.7 153.5Q664.5 154.3 664.5 159.1Q664.5 161.3 666 162.7Q667.5 164 670.1 164Q673.7 164 675.9 161.6Q678.1 159.1 678.1 155.3Z M697.4 170.9V160.7Q700.5 162.6 703.6 163.5Q706.7 164.4 709.4 164.4Q712.8 164.4 714.8 163.5Q716.7 162.6 716.7 160.7Q716.7 159.5 715.8 158.7Q714.9 157.9 713.6 157.3Q712.2 156.7 710.5 156.2Q708.9 155.7 707.4 155.1Q704.9 154.2 703.1 153.1Q701.2 152.1 699.9 150.7Q698.7 149.3 698 147.4Q697.4 145.6 697.4 143.1Q697.4 139.6 698.9 137.1Q700.4 134.6 702.9 133.1Q705.4 131.5 708.6 130.7Q711.8 130 715.3 130Q718 130 720.8 130.4Q723.6 130.8 726.3 131.6V141.4Q723.9 140 721.2 139.3Q718.5 138.6 715.8 138.6Q714.6 138.6 713.5 138.8Q712.4 139 711.5 139.5Q710.7 139.9 710.2 140.5Q709.7 141.2 709.7 142.1Q709.7 143.2 710.4 144Q711.2 144.8 712.3 145.4Q713.5 145.9 714.9 146.4Q716.3 146.9 717.7 147.3Q720.3 148.2 722.3 149.3Q724.3 150.3 725.8 151.7Q727.3 153.1 728 155Q728.8 156.9 728.8 159.5Q728.8 163.1 727.2 165.7Q725.7 168.3 723 169.9Q720.4 171.5 717 172.3Q713.6 173 709.9 173Q703.1 173 697.4 170.9Z M755.7 173Q745.4 173 739.5 167.3Q733.7 161.5 733.7 151.7Q733.7 141.5 739.8 135.7Q745.8 130 756.2 130Q766.4 130 772.2 135.7Q778 141.5 778 150.9Q778 161.1 772 167.1Q766.1 173 755.7 173ZM756 139.7Q751.5 139.7 749 142.8Q746.5 145.9 746.5 151.5Q746.5 163.3 756.1 163.3Q765.1 163.3 765.1 151.2Q765.1 139.7 756 139.7Z M825.8 172H813.2V149.2Q813.2 139.7 806.4 139.7Q803.1 139.7 801 142.2Q798.9 144.7 798.9 148.6V172H786.2V131H798.9V137.5H799.1Q803.6 130 812.2 130Q825.8 130 825.8 146.9Z M842.3 124.5Q839.1 124.5 837 122.6Q835 120.7 835 117.9Q835 115.1 837 113.3Q839.1 111.5 842.3 111.5Q845.5 111.5 847.5 113.3Q849.5 115.1 849.5 117.9Q849.5 120.8 847.5 122.7Q845.5 124.5 842.3 124.5ZM848.5 172H835.9V131H848.5Z M898.8 172H886.1V149.2Q886.1 139.7 879.3 139.7Q876.1 139.7 873.9 142.2Q871.8 144.7 871.8 148.6V172H859.2V131H871.8V137.5H872Q876.5 130 885.1 130Q898.8 130 898.8 146.9Z M949 167.3Q949 178.7 942.4 185Q935.7 191.3 923.2 191.3Q914.9 191.3 910.1 188.9V178.2Q916.4 181.9 922.9 181.9Q929.3 181.9 932.8 178.5Q936.3 175.2 936.3 169.4V166.1H936.1Q931.8 173 923.4 173Q915.5 173 910.9 167.5Q906.3 162 906.3 152.7Q906.3 142.3 911.4 136.1Q916.6 130 924.9 130Q932.4 130 936.1 135.8H936.3V131H949ZM936.5 152.3V149.1Q936.5 145.2 934.2 142.4Q931.9 139.7 928.2 139.7Q924 139.7 921.6 143Q919.2 146.3 919.2 152.2Q919.2 157.3 921.5 160.3Q923.7 163.3 927.7 163.3Q931.6 163.3 934 160.3Q936.5 157.3 936.5 152.3Z M980.8 169.8V157Q984.2 159.9 988.3 161.4Q992.4 162.8 996.6 162.8Q999 162.8 1000.8 162.4Q1002.7 162 1003.9 161.2Q1005.1 160.4 1005.7 159.3Q1006.3 158.3 1006.3 157Q1006.3 155.3 1005.3 154Q1004.4 152.7 1002.7 151.6Q1001.1 150.5 998.8 149.4Q996.5 148.4 993.8 147.3Q987.1 144.5 983.8 140.4Q980.5 136.4 980.5 130.7Q980.5 126.2 982.3 123Q984.1 119.7 987.2 117.7Q990.3 115.6 994.4 114.6Q998.5 113.6 1003.1 113.6Q1007.5 113.6 1011 114.2Q1014.5 114.7 1017.4 115.8V127.8Q1015.9 126.8 1014.2 126Q1012.5 125.3 1010.7 124.8Q1008.9 124.3 1007.2 124Q1005.4 123.8 1003.8 123.8Q1001.6 123.8 999.8 124.2Q998 124.6 996.7 125.4Q995.5 126.2 994.8 127.2Q994.1 128.3 994.1 129.6Q994.1 131 994.9 132.2Q995.6 133.3 997 134.3Q998.4 135.4 1000.5 136.3Q1002.5 137.3 1005 138.4Q1008.4 139.8 1011.2 141.4Q1013.9 143.1 1015.9 145.1Q1017.8 147.1 1018.9 149.8Q1019.9 152.4 1019.9 155.9Q1019.9 160.7 1018.1 163.9Q1016.3 167.2 1013.1 169.2Q1010 171.2 1005.9 172.1Q1001.7 173 997.1 173Q992.4 173 988.1 172.2Q983.9 171.4 980.8 169.8Z M1052.9 171.5Q1050.1 173 1044.5 173Q1031.1 173 1031.1 159.1V140.3H1024.4V131H1031.1V122.2L1043.7 118.5V131H1052.9V140.3H1043.7V156.9Q1043.7 163.3 1048.8 163.3Q1050.8 163.3 1052.9 162.2Z M1099.1 131 1082.4 175.3Q1076.4 191.3 1064.3 191.3Q1059.7 191.3 1056.7 190.2V180.1Q1059.3 181.6 1062.2 181.6Q1067.1 181.6 1069 177L1071.2 171.9L1054.5 131H1068.6L1076.2 155.9Q1076.9 158.3 1077.3 161.4H1077.5Q1077.8 159.1 1078.8 156L1086.5 131Z M1116.8 172H1104.2V111.3H1116.8Z M1164.3 155.1H1137.5Q1138.2 164 1148.8 164Q1155.6 164 1160.7 160.8V170Q1155 173 1145.9 173Q1136 173 1130.5 167.5Q1125 162 1125 152.1Q1125 141.9 1130.9 136Q1136.9 130 1145.5 130Q1154.5 130 1159.4 135.3Q1164.3 140.6 1164.3 149.8ZM1152.6 147.3Q1152.6 138.5 1145.4 138.5Q1142.4 138.5 1140.2 141Q1137.9 143.6 1137.5 147.3Z" fill="#020617" opacity="0.9"/>
  <path d="M167.2 168.2Q158.8 173 146.3 173Q132.4 173 124.5 165.3Q116.5 157.7 116.5 144.2Q116.5 130.7 125.2 122.2Q133.9 113.6 148.4 113.6Q157.5 113.6 164.5 116.1V128.3Q157.9 124.4 148.3 124.4Q140.2 124.4 135.1 129.7Q130.1 134.9 130.1 143.6Q130.1 152.5 134.6 157.3Q139.2 162.2 146.9 162.2Q151.5 162.2 154.3 160.8V149.6H142.8V139.3H167.2Z M191.3 152.2V172H178.4V114.6H198.6Q220.3 114.6 220.3 132.9Q220.3 141.5 214.1 146.9Q207.9 152.2 197.5 152.2ZM191.3 124.5V142.4H196.4Q206.7 142.4 206.7 133.4Q206.7 124.5 196.4 124.5Z M269.1 125.1H252.7V172H239.7V125.1H223.4V114.6H269.1Z M297.8 154.5H275.9V145.7H297.8Z M307.3 169.8V157Q310.8 159.9 314.9 161.4Q318.9 162.8 323.1 162.8Q325.6 162.8 327.4 162.4Q329.2 162 330.4 161.2Q331.6 160.4 332.2 159.3Q332.8 158.3 332.8 157Q332.8 155.3 331.9 154Q330.9 152.7 329.3 151.6Q327.6 150.5 325.3 149.4Q323 148.4 320.4 147.3Q313.7 144.5 310.4 140.4Q307.1 136.4 307.1 130.7Q307.1 126.2 308.9 123Q310.7 119.7 313.8 117.7Q316.9 115.6 320.9 114.6Q325 113.6 329.6 113.6Q334.1 113.6 337.5 114.2Q341 114.7 343.9 115.8V127.8Q342.5 126.8 340.8 126Q339.1 125.3 337.3 124.8Q335.5 124.3 333.7 124Q331.9 123.8 330.3 123.8Q328.1 123.8 326.3 124.2Q324.5 124.6 323.3 125.4Q322 126.2 321.3 127.2Q320.7 128.3 320.7 129.6Q320.7 131 321.4 132.2Q322.2 133.3 323.6 134.3Q325 135.4 327 136.3Q329 137.3 331.5 138.4Q335 139.8 337.7 141.4Q340.4 143.1 342.4 145.1Q344.4 147.1 345.4 149.8Q346.5 152.4 346.5 155.9Q346.5 160.7 344.6 163.9Q342.8 167.2 339.7 169.2Q336.6 171.2 332.4 172.1Q328.3 173 323.7 173Q318.9 173 314.7 172.2Q310.4 171.4 307.3 169.8Z M391.5 155.1H364.8Q365.4 164 376 164Q382.8 164 387.9 160.8V170Q382.2 173 373.1 173Q363.2 173 357.7 167.5Q352.2 162 352.2 152.1Q352.2 141.9 358.1 136Q364.1 130 372.7 130Q381.7 130 386.6 135.3Q391.5 140.6 391.5 149.8ZM379.8 147.3Q379.8 138.5 372.6 138.5Q369.6 138.5 367.4 141Q365.2 143.6 364.7 147.3Z M425.8 142.4Q423.5 141.2 420.4 141.2Q416.3 141.2 414 144.2Q411.7 147.2 411.7 152.4V172H399V131H411.7V138.6H411.8Q414.8 130.3 422.6 130.3Q424.6 130.3 425.8 130.8Z M438.1 124.5Q434.9 124.5 432.8 122.6Q430.8 120.7 430.8 117.9Q430.8 115.1 432.8 113.3Q434.9 111.5 438.1 111.5Q441.3 111.5 443.3 113.3Q445.4 115.1 445.4 117.9Q445.4 120.8 443.3 122.7Q441.3 124.5 438.1 124.5ZM444.3 172H431.7V131H444.3Z M491.8 155.1H465Q465.7 164 476.3 164Q483.1 164 488.2 160.8V170Q482.5 173 473.4 173Q463.5 173 458 167.5Q452.5 162 452.5 152.1Q452.5 141.9 458.4 136Q464.4 130 473 130Q482 130 486.9 135.3Q491.8 140.6 491.8 149.8ZM480.1 147.3Q480.1 138.5 472.9 138.5Q469.9 138.5 467.7 141Q465.4 143.6 465 147.3Z M496.6 170.9V160.7Q499.8 162.6 502.9 163.5Q506 164.4 508.7 164.4Q512.1 164.4 514 163.5Q516 162.6 516 160.7Q516 159.5 515.1 158.7Q514.2 157.9 512.8 157.3Q511.5 156.7 509.8 156.2Q508.2 155.7 506.6 155.1Q504.2 154.2 502.3 153.1Q500.5 152.1 499.2 150.7Q498 149.3 497.3 147.4Q496.6 145.6 496.6 143.1Q496.6 139.6 498.1 137.1Q499.6 134.6 502.1 133.1Q504.6 131.5 507.9 130.7Q511.1 130 514.6 130Q517.3 130 520.1 130.4Q522.9 130.8 525.6 131.6V141.4Q523.2 140 520.5 139.3Q517.7 138.6 515.1 138.6Q513.9 138.6 512.8 138.8Q511.7 139 510.8 139.5Q510 139.9 509.5 140.5Q509 141.2 509 142.1Q509 143.2 509.7 144Q510.5 144.8 511.6 145.4Q512.8 145.9 514.2 146.4Q515.6 146.9 517 147.3Q519.5 148.2 521.6 149.3Q523.6 150.3 525.1 151.7Q526.5 153.1 527.3 155Q528.1 156.9 528.1 159.5Q528.1 163.1 526.5 165.7Q524.9 168.3 522.3 169.9Q519.7 171.5 516.3 172.3Q512.9 173 509.2 173Q502.4 173 496.6 170.9Z M607.4 172H592.6L583.6 157.2Q582.6 155.5 581.7 154.2Q580.8 152.9 579.9 152Q578.9 151 577.9 150.5Q576.9 150 575.7 150H572.2V172H559.3V114.6H579.8Q600.7 114.6 600.7 130.2Q600.7 133.2 599.7 135.7Q598.8 138.3 597.1 140.3Q595.5 142.4 593.1 143.9Q590.7 145.3 587.8 146.2V146.3Q589.1 146.7 590.3 147.6Q591.5 148.5 592.6 149.7Q593.7 150.9 594.7 152.3Q595.7 153.7 596.6 155ZM572.2 124.3V140.2H577.8Q582 140.2 584.5 137.8Q587 135.4 587 131.8Q587 124.3 578 124.3Z M648.4 155.1H621.6Q622.3 164 632.9 164Q639.7 164 644.8 160.8V170Q639.1 173 630 173Q620.1 173 614.6 167.5Q609.1 162 609.1 152.1Q609.1 141.9 615 136Q621 130 629.6 130Q638.6 130 643.5 135.3Q648.4 140.6 648.4 149.8ZM636.7 147.3Q636.7 138.5 629.5 138.5Q626.5 138.5 624.3 141Q622 143.6 621.6 147.3Z M690 172H678.1V166.1H677.9Q673.8 173 665.7 173Q659.7 173 656.3 169.6Q652.9 166.2 652.9 160.6Q652.9 148.7 667 146.8L678.1 145.3Q678.1 138.6 670.9 138.6Q663.5 138.6 656.9 143V133.4Q659.6 132.1 664.1 131Q668.7 130 672.5 130Q690 130 690 147.5ZM678.1 155.3V152.6L670.7 153.5Q664.5 154.3 664.5 159.1Q664.5 161.3 666 162.7Q667.5 164 670.1 164Q673.7 164 675.9 161.6Q678.1 159.1 678.1 155.3Z M697.4 170.9V160.7Q700.5 162.6 703.6 163.5Q706.7 164.4 709.4 164.4Q712.8 164.4 714.8 163.5Q716.7 162.6 716.7 160.7Q716.7 159.5 715.8 158.7Q714.9 157.9 713.6 157.3Q712.2 156.7 710.5 156.2Q708.9 155.7 707.4 155.1Q704.9 154.2 703.1 153.1Q701.2 152.1 699.9 150.7Q698.7 149.3 698 147.4Q697.4 145.6 697.4 143.1Q697.4 139.6 698.9 137.1Q700.4 134.6 702.9 133.1Q705.4 131.5 708.6 130.7Q711.8 130 715.3 130Q718 130 720.8 130.4Q723.6 130.8 726.3 131.6V141.4Q723.9 140 721.2 139.3Q718.5 138.6 715.8 138.6Q714.6 138.6 713.5 138.8Q712.4 139 711.5 139.5Q710.7 139.9 710.2 140.5Q709.7 141.2 709.7 142.1Q709.7 143.2 710.4 144Q711.2 144.8 712.3 145.4Q713.5 145.9 714.9 146.4Q716.3 146.9 717.7 147.3Q720.3 148.2 722.3 149.3Q724.3 150.3 725.8 151.7Q727.3 153.1 728 155Q728.8 156.9 728.8 159.5Q728.8 163.1 727.2 165.7Q725.7 168.3 723 169.9Q720.4 171.5 717 172.3Q713.6 173 709.9 173Q703.1 173 697.4 170.9Z M755.7 173Q745.4 173 739.5 167.3Q733.7 161.5 733.7 151.7Q733.7 141.5 739.8 135.7Q745.8 130 756.2 130Q766.4 130 772.2 135.7Q778 141.5 778 150.9Q778 161.1 772 167.1Q766.1 173 755.7 173ZM756 139.7Q751.5 139.7 749 142.8Q746.5 145.9 746.5 151.5Q746.5 163.3 756.1 163.3Q765.1 163.3 765.1 151.2Q765.1 139.7 756 139.7Z M825.8 172H813.2V149.2Q813.2 139.7 806.4 139.7Q803.1 139.7 801 142.2Q798.9 144.7 798.9 148.6V172H786.2V131H798.9V137.5H799.1Q803.6 130 812.2 130Q825.8 130 825.8 146.9Z M842.3 124.5Q839.1 124.5 837 122.6Q835 120.7 835 117.9Q835 115.1 837 113.3Q839.1 111.5 842.3 111.5Q845.5 111.5 847.5 113.3Q849.5 115.1 849.5 117.9Q849.5 120.8 847.5 122.7Q845.5 124.5 842.3 124.5ZM848.5 172H835.9V131H848.5Z M898.8 172H886.1V149.2Q886.1 139.7 879.3 139.7Q876.1 139.7 873.9 142.2Q871.8 144.7 871.8 148.6V172H859.2V131H871.8V137.5H872Q876.5 130 885.1 130Q898.8 130 898.8 146.9Z M949 167.3Q949 178.7 942.4 185Q935.7 191.3 923.2 191.3Q914.9 191.3 910.1 188.9V178.2Q916.4 181.9 922.9 181.9Q929.3 181.9 932.8 178.5Q936.3 175.2 936.3 169.4V166.1H936.1Q931.8 173 923.4 173Q915.5 173 910.9 167.5Q906.3 162 906.3 152.7Q906.3 142.3 911.4 136.1Q916.6 130 924.9 130Q932.4 130 936.1 135.8H936.3V131H949ZM936.5 152.3V149.1Q936.5 145.2 934.2 142.4Q931.9 139.7 928.2 139.7Q924 139.7 921.6 143Q919.2 146.3 919.2 152.2Q919.2 157.3 921.5 160.3Q923.7 163.3 927.7 163.3Q931.6 163.3 934 160.3Q936.5 157.3 936.5 152.3Z M980.8 169.8V157Q984.2 159.9 988.3 161.4Q992.4 162.8 996.6 162.8Q999 162.8 1000.8 162.4Q1002.7 162 1003.9 161.2Q1005.1 160.4 1005.7 159.3Q1006.3 158.3 1006.3 157Q1006.3 155.3 1005.3 154Q1004.4 152.7 1002.7 151.6Q1001.1 150.5 998.8 149.4Q996.5 148.4 993.8 147.3Q987.1 144.5 983.8 140.4Q980.5 136.4 980.5 130.7Q980.5 126.2 982.3 123Q984.1 119.7 987.2 117.7Q990.3 115.6 994.4 114.6Q998.5 113.6 1003.1 113.6Q1007.5 113.6 1011 114.2Q1014.5 114.7 1017.4 115.8V127.8Q1015.9 126.8 1014.2 126Q1012.5 125.3 1010.7 124.8Q1008.9 124.3 1007.2 124Q1005.4 123.8 1003.8 123.8Q1001.6 123.8 999.8 124.2Q998 124.6 996.7 125.4Q995.5 126.2 994.8 127.2Q994.1 128.3 994.1 129.6Q994.1 131 994.9 132.2Q995.6 133.3 997 134.3Q998.4 135.4 1000.5 136.3Q1002.5 137.3 1005 138.4Q1008.4 139.8 1011.2 141.4Q1013.9 143.1 1015.9 145.1Q1017.8 147.1 1018.9 149.8Q1019.9 152.4 1019.9 155.9Q1019.9 160.7 1018.1 163.9Q1016.3 167.2 1013.1 169.2Q1010 171.2 1005.9 172.1Q1001.7 173 997.1 173Q992.4 173 988.1 172.2Q983.9 171.4 980.8 169.8Z M1052.9 171.5Q1050.1 173 1044.5 173Q1031.1 173 1031.1 159.1V140.3H1024.4V131H1031.1V122.2L1043.7 118.5V131H1052.9V140.3H1043.7V156.9Q1043.7 163.3 1048.8 163.3Q1050.8 163.3 1052.9 162.2Z M1099.1 131 1082.4 175.3Q1076.4 191.3 1064.3 191.3Q1059.7 191.3 1056.7 190.2V180.1Q1059.3 181.6 1062.2 181.6Q1067.1 181.6 1069 177L1071.2 171.9L1054.5 131H1068.6L1076.2 155.9Q1076.9 158.3 1077.3 161.4H1077.5Q1077.8 159.1 1078.8 156L1086.5 131Z M1116.8 172H1104.2V111.3H1116.8Z M1164.3 155.1H1137.5Q1138.2 164 1148.8 164Q1155.6 164 1160.7 160.8V170Q1155 173 1145.9 173Q1136 173 1130.5 167.5Q1125 162 1125 152.1Q1125 141.9 1130.9 136Q1136.9 130 1145.5 130Q1154.5 130 1159.4 135.3Q1164.3 140.6 1164.3 149.8ZM1152.6 147.3Q1152.6 138.5 1145.4 138.5Q1142.4 138.5 1140.2 141Q1137.9 143.6 1137.5 147.3Z" fill="#F8FAFC"/>
  <path d="M501.2 242Q496.7 244.5 490.3 244.5Q483 244.5 478.9 240.5Q474.7 236.4 474.7 229.4Q474.7 222.2 479.3 217.7Q483.9 213.2 491.4 213.2Q496.2 213.2 499.9 214.6V220.7Q496.3 218.7 491.3 218.7Q486.9 218.7 484.2 221.5Q481.5 224.4 481.5 229Q481.5 233.8 483.9 236.4Q486.4 239.1 490.6 239.1Q493.1 239.1 494.7 238.3V232.1H488.6V226.9H501.2Z M513.6 233.5V244H507.2V213.7H517.6Q528.9 213.7 528.9 223.3Q528.9 228 525.5 230.8Q522.1 233.6 517 233.5ZM513.6 218.7V228.5H516.4Q522.1 228.5 522.1 223.6Q522.1 218.7 516.5 218.7Z M554.4 219H545.7V244H539.3V219H530.6V213.7H554.4Z M569.1 213.3Q588.2 213.4 603.8 211.8L604.6 216.1Q596.7 216.8 588.1 217.3Q584.1 219.7 579.5 221.9L592.4 221.4Q595.4 219.7 598.4 217.9L602.1 221.6Q591.1 227.6 578.8 232.3Q587.2 231.9 595.7 231.3Q594.2 229.8 592.9 228.6L596.5 225.7Q599.5 228.3 606.1 234.8L602.3 238.2Q601 236.7 599.7 235.3L590.2 235.7V244.9Q590.2 246.9 589.1 247.9Q587.9 248.9 585.6 249Q583.2 249.1 579.3 249.1Q578.9 246.2 578.2 243.8Q580.2 243.9 582.3 243.9Q583.9 243.9 584.4 243.6Q584.9 243.2 584.9 242.3V236Q576.2 236.4 571.5 236.9L570.2 232.1Q576.8 229.6 584.4 225.7Q576.7 226.1 572.5 226.8L571 222Q575.3 220.4 579.9 217.7L569.9 218Q569.6 215.7 569.1 213.3ZM596.5 236.8Q600.9 239.8 606.2 244L602.7 247.8Q598.5 244.2 593.2 240.2ZM576.7 237.2 580.7 240.7Q576.2 244.8 571 248.2Q569.2 245.9 567.5 244.1Q572.5 241.2 576.7 237.2Z M638.6 210.8H643.9V242.3Q643.9 245.3 642.8 246.9Q641.6 248.4 639.5 248.6Q637.4 248.9 631.6 248.8Q630.9 245.2 630.4 243.1Q633 243.2 635.4 243.2Q636.8 243.2 637.4 243.1Q637.9 242.9 638.3 242.2Q638.6 241.6 638.6 240.5ZM608.6 212.6H629.1V217.7H619.6Q619 219.8 618.2 221.7H628V226.5Q625.4 240.7 612.7 249.6Q610.6 246.9 608.7 245Q614.5 241.6 618.1 236.7Q615.7 234.4 613.6 232.5L616.5 229.4Q618.4 230.9 620.6 232.7Q622 230 622.8 226.9H616Q613.5 232 610 236.1Q608.8 233.5 607.4 231.1Q612.3 224.8 614.4 217.7H608.6ZM635.2 239.5H630.2V215.6H635.2Z M675 210.5Q677.3 213.9 678.7 216.1L676 217.5H685.5V221.8H678.1V225.9H685.2V230H678.1V234.2H685.2V238.2H678.1V242.4H686V246.6H666.9V249.3H661.8V228.5Q661.4 229.1 661 229.7Q659.8 227 658.5 224.8Q663.5 217.7 665.3 210.6L670.3 211.8Q669.3 214.6 667.9 217.5H673.8Q672.7 215.3 671.1 212.7ZM647.8 217.9H651.8V210.9H657V217.9H659.6V222.9H657V228.5Q658.2 228.1 659.6 227.7Q659.4 231 659.5 233Q658.2 233.4 657 233.8V244.4Q657 248.7 653.2 248.9Q651.1 249.1 648.9 249.1Q648.5 246.8 647.7 244Q648.9 244.1 650.5 244.1Q651.8 244.1 651.8 242.2V235.5Q649.8 236.2 647.7 236.9L647.3 231.2Q649.1 230.8 651.8 230V222.9H647.8ZM666.9 242.4H673V238.2H666.9ZM666.9 234.2H673V230H666.9ZM666.9 225.9H673V221.8H666.9Z M688.5 247.1 687.4 241.6 692.1 240.5V230.9H688.3V226.1H692.1V217.9H688.2V213H701V217.9H697.1V226.1H700.7V230.9H697.1V239.3Q699.2 238.7 701.1 238.1Q701 240.9 701.1 243.5H710.8V240.1H701.9V235.6H710.8V232.8H702.1V212.5H724.5V232.8H715.8V235.6H724.7V240.1H715.8V243.5H726.4V247.9H699.6V243.8Q694.5 245.2 688.5 247.1ZM719.6 216.9H715.8V220.6H719.6ZM707 220.6H710.8V216.9H707ZM719.6 228.4V224.7H715.8V228.4ZM707 228.4H710.8V224.7H707Z M761.9 243.2Q762.2 243.2 762.4 243Q762.6 242.7 762.9 241.1Q763.1 239.4 763.4 235.8Q765.2 236.8 766.8 237.4Q766.2 245.1 765 247.1Q763.8 249.2 761.6 249.2Q758.5 249.2 756.9 245.9Q755.4 242.7 755.4 228.6V217.8H736.3V227.8Q736.3 235.3 735.2 240.2Q734.2 245 731.1 249.8Q729.2 247.6 727.1 245.2Q729.5 241.6 730.3 237.7Q731 233.9 731 225.5V212.5H760.7V229.2Q760.7 237.7 760.9 240.4Q761 243.1 761.9 243.2ZM740.5 220Q743.5 223.8 746.2 227.4Q748.7 223.4 750.6 219.3L755.2 221.9Q752.7 227 749.5 231.9Q753 236.8 755.8 241.1L751.4 244.6Q748.8 240.6 746.1 236.5Q742.9 240.6 739.2 244.5Q737.2 242.3 735.4 240.4Q739.6 236.3 742.9 231.9Q739.8 227.4 736.4 223Z M767.4 233.4Q770.5 228.2 772 222.8H767.7V217.7H772.3V210.9H777.3V217.7H781.2V220.4Q785.4 215.9 788 210.5L793.5 211.4Q792.7 213 791.8 214.5H804.5V219Q802.1 223.3 798.2 226.3Q801.5 227.4 806.3 228.2Q805.5 230.5 805.1 233.2Q797.8 231.7 793.2 229.3Q788.5 231.5 781.4 233.2L781 232.2L779.4 234.3Q778.4 233.4 777.3 232.5V249.3H772.3V233.2Q770.8 236.9 768.6 240.5Q768 236.6 767.4 233.4ZM788.6 219.3Q790.6 222.2 793.2 224Q796.4 221.9 798.1 219H788.8ZM780.2 228.6Q785.1 227.5 788.6 226.2Q786.9 224.8 785.5 223Q784.2 224.4 782.8 225.7Q781.5 224.1 780.3 222.8H777.3V226.6ZM782.6 249.2V233.2H803.6V249.1H798.3V247.2H787.9V249.2ZM798.3 238.1H787.9V242.3H798.3Z" fill="#C4B5FD"/>
  <path d="M365.1 302.6Q362.1 304.4 357.5 304.4Q352.4 304.4 349.5 301.6Q346.6 298.8 346.6 293.8Q346.6 288.9 349.8 285.8Q353 282.6 358.3 282.6Q361.6 282.6 364.2 283.6V288Q361.7 286.6 358.2 286.6Q355.3 286.6 353.4 288.5Q351.6 290.4 351.6 293.6Q351.6 296.9 353.2 298.6Q354.9 300.4 357.7 300.4Q359.4 300.4 360.4 299.9V295.8H356.2V292H365.1Z M381.3 304H376.9V301.8H376.8Q375.3 304.4 372.4 304.4Q370.2 304.4 368.9 303.1Q367.7 301.9 367.7 299.8Q367.7 295.5 372.8 294.8L376.9 294.2Q376.9 291.8 374.2 291.8Q371.6 291.8 369.1 293.4V289.9Q370.1 289.4 371.8 289Q373.5 288.6 374.8 288.6Q381.3 288.6 381.3 295ZM376.9 297.9V296.9L374.2 297.2Q371.9 297.5 371.9 299.3Q371.9 300.1 372.5 300.6Q373 301.1 374 301.1Q375.3 301.1 376.1 300.2Q376.9 299.3 376.9 297.9Z M394 303.8Q393 304.4 390.9 304.4Q386 304.4 386 299.3V292.4H383.6V289H386V285.8L390.6 284.4V289H394V292.4H390.6V298.5Q390.6 300.8 392.5 300.8Q393.2 300.8 394 300.4Z M410.1 297.8H400.3Q400.5 301.1 404.4 301.1Q406.9 301.1 408.8 299.9V303.3Q406.7 304.4 403.3 304.4Q399.7 304.4 397.7 302.4Q395.7 300.3 395.7 296.7Q395.7 293 397.9 290.8Q400 288.6 403.2 288.6Q406.5 288.6 408.3 290.6Q410.1 292.5 410.1 295.9ZM405.8 295Q405.8 291.8 403.2 291.8Q402.1 291.8 401.2 292.7Q400.4 293.6 400.3 295Z M425.8 302.3H425.7V304H421.1V281.8H425.7V291.3H425.8Q427.5 288.6 430.7 288.6Q433.6 288.6 435.1 290.6Q436.7 292.6 436.7 296.1Q436.7 299.8 434.9 302.1Q433 304.4 430 304.4Q427.2 304.4 425.8 302.3ZM425.7 295.9V297.5Q425.7 298.9 426.5 299.9Q427.3 300.8 428.6 300.8Q430.2 300.8 431.1 299.6Q432 298.4 432 296.1Q432 294.3 431.2 293.2Q430.4 292.2 428.9 292.2Q427.5 292.2 426.6 293.2Q425.7 294.3 425.7 295.9Z M453.2 297.8H443.4Q443.6 301.1 447.5 301.1Q450 301.1 451.9 299.9V303.3Q449.8 304.4 446.5 304.4Q442.8 304.4 440.8 302.4Q438.8 300.3 438.8 296.7Q438.8 293 441 290.8Q443.1 288.6 446.3 288.6Q449.6 288.6 451.4 290.6Q453.2 292.5 453.2 295.9ZM448.9 295Q448.9 291.8 446.3 291.8Q445.2 291.8 444.4 292.7Q443.5 293.6 443.4 295Z M465.7 285.3Q464.8 285 464 285Q461.8 285 461.8 287.4V289H465.2V292.4H461.8V304H457.2V292.4H454.6V289H457.2V287.1Q457.2 284.6 458.8 283Q460.5 281.4 463.4 281.4Q464.8 281.4 465.7 281.7Z M474.6 304.4Q470.8 304.4 468.7 302.3Q466.5 300.2 466.5 296.6Q466.5 292.8 468.8 290.7Q471 288.6 474.8 288.6Q478.5 288.6 480.6 290.7Q482.8 292.8 482.8 296.3Q482.8 300 480.6 302.2Q478.4 304.4 474.6 304.4ZM474.7 292.2Q473.1 292.2 472.2 293.3Q471.2 294.4 471.2 296.5Q471.2 300.8 474.7 300.8Q478.1 300.8 478.1 296.4Q478.1 292.2 474.7 292.2Z M495.6 293.2Q494.7 292.7 493.6 292.7Q492.1 292.7 491.3 293.8Q490.4 294.9 490.4 296.8V304H485.8V289H490.4V291.8H490.5Q491.6 288.7 494.4 288.7Q495.1 288.7 495.6 288.9Z M511.2 297.8H501.4Q501.6 301.1 505.5 301.1Q508 301.1 509.9 299.9V303.3Q507.8 304.4 504.5 304.4Q500.8 304.4 498.8 302.4Q496.8 300.3 496.8 296.7Q496.8 293 499 290.8Q501.2 288.6 504.3 288.6Q507.6 288.6 509.4 290.6Q511.2 292.5 511.2 295.9ZM506.9 295Q506.9 291.8 504.3 291.8Q503.2 291.8 502.4 292.7Q501.6 293.6 501.4 295Z M533.6 303.5Q532 304.4 529.1 304.4Q525.6 304.4 523.5 302.3Q521.3 300.2 521.3 296.9Q521.3 293 523.6 290.8Q525.9 288.6 529.7 288.6Q532.4 288.6 533.6 289.3V293.3Q532.1 292.2 530.3 292.2Q528.4 292.2 527.2 293.3Q526 294.5 526 296.6Q526 298.6 527.1 299.7Q528.3 300.8 530.2 300.8Q531.9 300.8 533.6 299.7Z M543.8 304.4Q540 304.4 537.9 302.3Q535.7 300.2 535.7 296.6Q535.7 292.8 538 290.7Q540.2 288.6 544 288.6Q547.7 288.6 549.8 290.7Q552 292.8 552 296.3Q552 300 549.8 302.2Q547.6 304.4 543.8 304.4ZM543.9 292.2Q542.2 292.2 541.3 293.3Q540.4 294.4 540.4 296.5Q540.4 300.8 543.9 300.8Q547.2 300.8 547.2 296.4Q547.2 292.2 543.9 292.2Z M569.6 304H565V301.9H564.9Q563.4 304.4 560.3 304.4Q557.5 304.4 555.8 302.4Q554.1 300.4 554.1 296.8Q554.1 293.1 556 290.9Q557.8 288.6 560.9 288.6Q563.8 288.6 564.9 290.7H565V281.8H569.6ZM565.1 296.7V295.6Q565.1 294.1 564.2 293.1Q563.4 292.2 562 292.2Q560.5 292.2 559.6 293.4Q558.8 294.6 558.8 296.7Q558.8 298.7 559.6 299.8Q560.4 300.8 561.9 300.8Q563.3 300.8 564.2 299.7Q565.1 298.6 565.1 296.7Z M587 297.8H577.2Q577.5 301.1 581.3 301.1Q583.8 301.1 585.7 299.9V303.3Q583.6 304.4 580.3 304.4Q576.7 304.4 574.6 302.4Q572.6 300.3 572.6 296.7Q572.6 293 574.8 290.8Q577 288.6 580.1 288.6Q583.4 288.6 585.2 290.6Q587 292.5 587 295.9ZM582.7 295Q582.7 291.8 580.1 291.8Q579 291.8 578.2 292.7Q577.4 293.6 577.2 295Z M600.1 296.9Q599 296.9 598.2 296.2Q597.4 295.5 597.4 294.4Q597.4 293.4 598.2 292.7Q599 292 600.2 292Q601.4 292 602.1 292.7Q602.9 293.4 602.9 294.4Q602.9 295.5 602.1 296.2Q601.3 296.9 600.1 296.9Z M627.5 304H614.9V283H627V286.8H619.6V291.5H626.5V295.4H619.6V300.2H627.5Z M644.7 289 639.1 304H633.8L628.5 289H633.5L636.1 298.2Q636.5 299.8 636.6 300.9H636.7Q636.8 299.9 637.2 298.3L639.9 289Z M649 286.6Q647.8 286.6 647.1 285.9Q646.4 285.2 646.4 284.2Q646.4 283.2 647.1 282.5Q647.8 281.9 649 281.9Q650.2 281.9 650.9 282.5Q651.7 283.2 651.7 284.2Q651.7 285.3 650.9 286Q650.2 286.6 649 286.6ZM651.3 304H646.7V289H651.3Z M669.9 304H665.2V301.9H665.2Q663.6 304.4 660.5 304.4Q657.7 304.4 656 302.4Q654.3 300.4 654.3 296.8Q654.3 293.1 656.2 290.9Q658.1 288.6 661.1 288.6Q664 288.6 665.2 290.7H665.2V281.8H669.9ZM665.3 296.7V295.6Q665.3 294.1 664.5 293.1Q663.6 292.2 662.3 292.2Q660.7 292.2 659.9 293.4Q659 294.6 659 296.7Q659 298.7 659.8 299.8Q660.7 300.8 662.2 300.8Q663.6 300.8 664.4 299.7Q665.3 298.6 665.3 296.7Z M687.2 297.8H677.5Q677.7 301.1 681.6 301.1Q684.1 301.1 685.9 299.9V303.3Q683.9 304.4 680.5 304.4Q676.9 304.4 674.9 302.4Q672.9 300.3 672.9 296.7Q672.9 293 675 290.8Q677.2 288.6 680.4 288.6Q683.7 288.6 685.5 290.6Q687.2 292.5 687.2 295.9ZM683 295Q683 291.8 680.3 291.8Q679.2 291.8 678.4 292.7Q677.6 293.6 677.4 295Z M704.5 304H699.9V295.7Q699.9 292.2 697.4 292.2Q696.2 292.2 695.4 293.1Q694.6 294 694.6 295.4V304H690V289H694.6V291.4H694.7Q696.3 288.6 699.5 288.6Q704.5 288.6 704.5 294.8Z M719.5 303.5Q718 304.4 715 304.4Q711.5 304.4 709.4 302.3Q707.3 300.2 707.3 296.9Q707.3 293 709.6 290.8Q711.8 288.6 715.7 288.6Q718.3 288.6 719.5 289.3V293.3Q718.1 292.2 716.3 292.2Q714.3 292.2 713.1 293.3Q712 294.5 712 296.6Q712 298.6 713.1 299.7Q714.2 300.8 716.1 300.8Q717.9 300.8 719.5 299.7Z M736 297.8H726.2Q726.5 301.1 730.4 301.1Q732.8 301.1 734.7 299.9V303.3Q732.6 304.4 729.3 304.4Q725.7 304.4 723.7 302.4Q721.7 300.3 721.7 296.7Q721.7 293 723.8 290.8Q726 288.6 729.2 288.6Q732.4 288.6 734.2 290.6Q736 292.5 736 295.9ZM731.7 295Q731.7 291.8 729.1 291.8Q728 291.8 727.2 292.7Q726.4 293.6 726.2 295Z M751.7 302.3H751.7V304H747.1V281.8H751.7V291.3H751.7Q753.5 288.6 756.6 288.6Q759.5 288.6 761.1 290.6Q762.7 292.6 762.7 296.1Q762.7 299.8 760.8 302.1Q759 304.4 755.9 304.4Q753.2 304.4 751.7 302.3ZM751.6 295.9V297.5Q751.6 298.9 752.4 299.9Q753.3 300.8 754.6 300.8Q756.2 300.8 757 299.6Q757.9 298.4 757.9 296.1Q757.9 294.3 757.1 293.2Q756.3 292.2 754.8 292.2Q753.4 292.2 752.5 293.2Q751.6 294.3 751.6 295.9Z M779.1 297.8H769.4Q769.6 301.1 773.5 301.1Q775.9 301.1 777.8 299.9V303.3Q775.7 304.4 772.4 304.4Q768.8 304.4 766.8 302.4Q764.8 300.3 764.8 296.7Q764.8 293 766.9 290.8Q769.1 288.6 772.3 288.6Q775.5 288.6 777.3 290.6Q779.1 292.5 779.1 295.9ZM774.8 295Q774.8 291.8 772.2 291.8Q771.1 291.8 770.3 292.7Q769.5 293.6 769.3 295Z M791.7 285.3Q790.8 285 790 285Q787.7 285 787.7 287.4V289H791.2V292.4H787.7V304H783.1V292.4H780.6V289H783.1V287.1Q783.1 284.6 784.8 283Q786.5 281.4 789.3 281.4Q790.7 281.4 791.7 281.7Z M800.5 304.4Q796.8 304.4 794.6 302.3Q792.5 300.2 792.5 296.6Q792.5 292.8 794.7 290.7Q797 288.6 800.7 288.6Q804.5 288.6 806.6 290.7Q808.7 292.8 808.7 296.3Q808.7 300 806.5 302.2Q804.3 304.4 800.5 304.4ZM800.7 292.2Q799 292.2 798.1 293.3Q797.2 294.4 797.2 296.5Q797.2 300.8 800.7 300.8Q804 300.8 804 296.4Q804 292.2 800.7 292.2Z M821.5 293.2Q820.7 292.7 819.6 292.7Q818.1 292.7 817.2 293.8Q816.4 294.9 816.4 296.8V304H811.7V289H816.4V291.8H816.4Q817.5 288.7 820.4 288.7Q821.1 288.7 821.5 288.9Z M837.1 297.8H827.4Q827.6 301.1 831.5 301.1Q834 301.1 835.8 299.9V303.3Q833.7 304.4 830.4 304.4Q826.8 304.4 824.8 302.4Q822.8 300.3 822.8 296.7Q822.8 293 824.9 290.8Q827.1 288.6 830.3 288.6Q833.6 288.6 835.4 290.6Q837.1 292.5 837.1 295.9ZM832.9 295Q832.9 291.8 830.2 291.8Q829.1 291.8 828.3 292.7Q827.5 293.6 827.3 295Z M859.5 303.5Q858 304.4 855 304.4Q851.6 304.4 849.4 302.3Q847.3 300.2 847.3 296.9Q847.3 293 849.6 290.8Q851.9 288.6 855.7 288.6Q858.4 288.6 859.5 289.3V293.3Q858.1 292.2 856.3 292.2Q854.3 292.2 853.1 293.3Q852 294.5 852 296.6Q852 298.6 853.1 299.7Q854.2 300.8 856.2 300.8Q857.9 300.8 859.5 299.7Z M867.2 304H862.6V281.8H867.2Z M883.6 304H879.2V301.8H879.1Q877.6 304.4 874.7 304.4Q872.5 304.4 871.2 303.1Q870 301.9 870 299.8Q870 295.5 875.2 294.8L879.2 294.2Q879.2 291.8 876.6 291.8Q873.9 291.8 871.5 293.4V289.9Q872.4 289.4 874.1 289Q875.8 288.6 877.2 288.6Q883.6 288.6 883.6 295ZM879.2 297.9V296.9L876.5 297.2Q874.3 297.5 874.3 299.3Q874.3 300.1 874.8 300.6Q875.3 301.1 876.3 301.1Q877.6 301.1 878.4 300.2Q879.2 299.3 879.2 297.9Z M889.6 286.6Q888.4 286.6 887.7 285.9Q886.9 285.2 886.9 284.2Q886.9 283.2 887.7 282.5Q888.4 281.9 889.6 281.9Q890.8 281.9 891.5 282.5Q892.3 283.2 892.3 284.2Q892.3 285.3 891.5 286Q890.8 286.6 889.6 286.6ZM891.9 304H887.2V289H891.9Z M919.6 304H915V295.4Q915 292.2 912.6 292.2Q911.4 292.2 910.7 293.2Q910 294.1 910 295.6V304H905.4V295.4Q905.4 292.2 903 292.2Q901.8 292.2 901.1 293.1Q900.4 294.1 900.4 295.7V304H895.8V289H900.4V291.3H900.5Q901.2 290.1 902.5 289.4Q903.8 288.6 905.3 288.6Q908.5 288.6 909.7 291.4Q911.4 288.6 914.7 288.6Q919.6 288.6 919.6 294.7Z M922.3 303.6V299.9Q923.4 300.5 924.5 300.9Q925.7 301.2 926.7 301.2Q927.9 301.2 928.6 300.9Q929.3 300.5 929.3 299.9Q929.3 299.4 929 299.1Q928.7 298.8 928.2 298.6Q927.7 298.4 927.1 298.2Q926.5 298 925.9 297.8Q925 297.5 924.4 297.1Q923.7 296.7 923.2 296.2Q922.8 295.7 922.5 295Q922.3 294.3 922.3 293.4Q922.3 292.1 922.8 291.2Q923.4 290.3 924.3 289.8Q925.2 289.2 926.4 288.9Q927.6 288.6 928.8 288.6Q929.8 288.6 930.9 288.8Q931.9 288.9 932.9 289.2V292.8Q932 292.3 931 292Q930 291.8 929 291.8Q928.6 291.8 928.2 291.9Q927.8 291.9 927.5 292.1Q927.1 292.3 927 292.5Q926.8 292.7 926.8 293Q926.8 293.5 927.1 293.7Q927.3 294 927.7 294.3Q928.2 294.5 928.7 294.6Q929.2 294.8 929.7 295Q930.6 295.3 931.4 295.7Q932.1 296.1 932.7 296.6Q933.2 297.1 933.5 297.8Q933.8 298.5 933.8 299.4Q933.8 300.7 933.2 301.7Q932.6 302.6 931.7 303.2Q930.7 303.8 929.5 304.1Q928.2 304.4 926.9 304.4Q924.4 304.4 922.3 303.6Z" fill="#E2E8F0"/>
  <path d="M403.2 335.2H413V330.4H407.6Q406.5 332.6 405.2 334.3Q404.4 333.6 403.8 333.2Q406.3 330 407.7 325.4L409.4 325.9Q408.9 327.4 408.4 328.7H413V324.9H414.8V328.7H423.2V330.4H414.8V335.2H424.7V336.8H417.5V343.2Q417.3 344.9 419 344.8H421.3Q422.9 344.8 423 343.6Q423.2 342.5 423.3 340.3Q424.1 340.7 425.1 341Q425 342.7 424.7 344.4Q424.5 345.6 423.8 346Q423.1 346.4 421.3 346.4H418.7Q415.5 346.6 415.6 343.5V336.8H411.3Q411.1 340.7 409.7 342.8Q408 345.4 403.7 347Q403.2 346.3 402.5 345.4Q406.5 344.1 408 341.9Q409.3 340.2 409.5 336.8H403.2Z M432.8 331.6Q436 328.4 437.8 324.7L439.5 325.1Q438.9 326.1 438.4 327H444.9V328.4L443 330.8H447.1V344.2Q447.1 346.6 445 346.6Q443.8 346.6 443 346.6Q442.8 345.8 442.6 344.9Q443.9 345 444.5 345Q445.5 345 445.5 343.9V341.4H441.8V346.4H440.2V341.4H436.5Q435.9 344.9 434.1 347.2Q433.6 346.5 432.8 345.8Q435.3 343 435.3 337.4V331.4Q434.7 332.1 434.1 332.7Q433.6 332.2 432.8 331.6ZM425.5 337.9Q428 333.8 429.2 328.6H426.2V327.1H434.2V328.6H430.8Q430.2 331 429.4 333.3H433.3V343.5H429.5V345.2H428V336.6Q427.4 337.9 426.6 339.2Q426.2 338.6 425.5 337.9ZM431.8 342.1V334.7H429.5V342.1ZM442.9 328.5H437.4Q436.6 329.7 435.7 330.8H441.1ZM441.8 339.9H445.5V336.8H441.8ZM445.5 332.4H441.8V335.4H445.5ZM436.7 339.9H440.2V336.8H436.9Q436.9 337.4 436.7 339.9ZM436.9 335.4H440.2V332.4H436.9Z M462 325.1H463.8Q463.8 328.1 463.7 330.9Q464.9 341.2 471.1 344.8Q470.3 345.7 469.6 346.5Q464.8 343.2 463.1 335.7Q461.9 342.5 456.2 346.9Q455.7 346.3 454.9 345.5Q461.9 340.5 461.9 330.8Q462 328.3 462 325.1ZM457.4 338.1Q457.6 339.1 457.8 339.9Q455.4 341.7 453.3 343.7Q452.7 344.2 452.3 344.8L451 343.4Q451.7 342.7 451.7 341.5V333.9H448.7V332.3H453.4V341.4Q455.1 340.1 457.4 338.1ZM452 325.3Q454.2 327.5 455.8 329.3L454.3 330.6Q452.7 328.6 450.7 326.4Z M476.5 346.9H474.7V340.6H471.8V339H474.7V330.3H482V327.7H472.6V326.2H493.2V327.7H483.7V330.3H491.1V339H494V340.6H491.1V344.1Q491.1 346.6 488.7 346.6Q487.3 346.7 485 346.6Q484.9 345.9 484.7 344.9Q486.5 345.1 487.9 345.1Q489.3 345.1 489.3 343.9V340.6H476.5ZM483.7 339H489.3V336.1H483.7ZM476.5 339H482V336.1H476.5ZM489.3 331.7H483.7V334.6H489.3ZM476.5 334.6H482V331.7H476.5Z M505 329.5H508.4Q508.4 327.3 508.4 324.9H510.3Q510.2 327.3 510.2 329.5H516.3Q516.1 338 515.8 343.2Q515.6 346.4 512.9 346.4Q511.5 346.4 509.8 346.4Q509.7 345.4 509.5 344.4Q511 344.6 512.3 344.6Q514 344.6 514 342.8Q514.4 337.2 514.4 331.3H510.2Q510.1 332.2 510.1 333.2Q510 342 504.8 347.1Q504.1 346.4 503.4 345.6Q508.1 341.4 508.3 333.1Q508.3 332.2 508.4 331.3H505ZM502.8 337.3Q504.2 340.4 505.4 343.4Q504.4 343.8 503.7 344.1Q503.5 343.7 503.4 343.2Q499.1 343.7 495.6 344.1L494.8 342.2Q495.8 341.7 496.4 340.4Q497.5 338.2 498.7 334.8H494.9V333.1H505.7V334.8H500.6Q498.6 339.6 497.2 342.2Q499.8 342 502.8 341.7Q502 339.8 501.2 338ZM495.8 326.8H504.8V328.5H495.8Z M517.8 337.9H528V333.9H519.4V332.1H528V328.1Q523.7 328.2 519.3 328.4Q519.2 327.4 519 326.5Q530.5 326.3 537.6 325.7L537.9 327.5Q534 327.8 529.9 328V332.1H538V333.9H529.9V337.9H539.9V339.7H529.9V343.8Q529.9 346.6 527.1 346.6Q525.7 346.6 523.1 346.6Q523 345.5 522.8 344.5Q525.3 344.7 526.6 344.7Q528 344.7 528 343.2V339.7H517.8Z M548.5 336.4Q548.5 335.8 548.9 335.4Q549.3 335 549.9 335Q550.5 335 551 335.4Q551.4 335.8 551.4 336.4Q551.4 337 551 337.4Q550.6 337.8 549.9 337.8Q549.3 337.8 548.9 337.4Q548.5 337 548.5 336.4Z M560.3 335.2H570.1V330.4H564.7Q563.6 332.6 562.4 334.3Q561.5 333.6 560.9 333.2Q563.4 330 564.8 325.4L566.6 325.9Q566.1 327.4 565.5 328.7H570.1V324.9H572V328.7H580.3V330.4H572V335.2H581.8V336.8H574.6V343.2Q574.5 344.9 576.2 344.8H578.5Q580 344.8 580.2 343.6Q580.3 342.5 580.4 340.3Q581.3 340.7 582.3 341Q582.2 342.7 581.9 344.4Q581.7 345.6 580.9 346Q580.2 346.4 578.5 346.4H575.8Q572.7 346.6 572.8 343.5V336.8H568.4Q568.2 340.7 566.8 342.8Q565.2 345.4 560.8 347Q560.4 346.3 559.7 345.4Q563.7 344.1 565.2 341.9Q566.4 340.2 566.6 336.8H560.3Z M588.5 344.1H591.7V331.7H593.4V344.1H597V327.7H589.8V326H604.8V327.7H598.8V334.5H604V336.1H598.8V344.1H605.1V345.8H588.5ZM589.9 338.5Q590 339.3 590.3 340.4Q587.6 343.1 586.2 344.7L584.9 343.3Q585.6 342.3 585.6 341V334H582.9V332.4H587.3V341.1Q588.3 340.1 589.9 338.5ZM585 325.2Q587.7 327.9 588.7 329.1L587.1 330.4Q585.7 328.6 583.7 326.4Z M615.9 339.2H620.5V336.4H615.3Q615.1 343.3 612.1 347Q611.6 346.3 610.9 345.6Q613.7 342.1 613.7 335V326.2H627V332.7H625.4V332H615.3V334.8H620.5V332.5H622.2V334.8H628.1V336.4H622.2V339.2H626.8V346.8H625.2V345.5H617.5V346.8H615.9ZM605.9 336.9Q607.5 336.5 609 336V330.9H606.1V329.3H609V325H610.6V329.3H613.1V330.9H610.6V335.5Q611.7 335.2 612.7 334.8Q612.7 335.9 612.8 336.6Q611.7 337 610.6 337.3V344.1Q610.6 346.7 608.4 346.7Q607.7 346.7 606.3 346.7Q606.2 345.8 606.1 344.8Q607.3 345 607.9 345Q609 345 609 343.8V337.9Q607.4 338.4 606.1 338.9ZM625.4 327.7H615.3V330.6H625.4ZM625.2 340.7H617.5V344H625.2Z M633.6 346.9H631.8V340.6H629V339H631.8V330.3H639.1V327.7H629.7V326.2H650.3V327.7H640.9V330.3H648.2V339H651.1V340.6H648.2V344.1Q648.2 346.6 645.9 346.6Q644.4 346.7 642.2 346.6Q642 345.9 641.8 344.9Q643.7 345.1 645 345.1Q646.4 345.1 646.4 343.9V340.6H633.6ZM640.9 339H646.4V336.1H640.9ZM633.6 339H639.1V336.1H633.6ZM646.4 331.7H640.9V334.6H646.4ZM633.6 334.6H639.1V331.7H633.6Z M660.9 337.9H672.8V347H671V345.6H662.7V347H660.9ZM660.5 333.6H666V330.1H659.7V328.5H666V324.9H667.8V328.5H674.1V330.1H667.8V333.6H673.3V335.2H660.5ZM654.7 338.4Q657.7 337.9 659.7 337.6Q659.5 338.5 659.5 339.3Q657 339.7 652.6 340.4L652.3 338.7Q653.7 337.2 655.7 334Q653.8 334.1 652.3 334.2L651.9 332.7Q653.9 329.9 656.1 324.7L657.9 325.4Q655.4 330.2 653.9 332.6Q655.2 332.5 656.6 332.5Q657.4 331.2 658.2 329.6L659.9 330.5Q657.3 334.7 654.7 338.4ZM671 339.4H662.7V344H671ZM651.8 343.7Q655.9 342.9 659.9 341.9Q659.8 342.8 659.8 343.6Q656.2 344.4 652.3 345.4Z M684.3 333.7H686.1V338.4Q690.4 336.6 693.1 334.1L694.4 335.6Q690.9 338.3 686.1 340.3V343.2Q686.1 344.7 687.4 344.7H691.9Q693.5 344.7 693.8 343.3Q694.1 341.6 694.2 339.7Q694.9 340 696 340.4Q695.8 342.2 695.5 343.8Q695.1 346.4 692 346.4H686.9Q684.3 346.4 684.3 343.6ZM690.4 325.1 690.1 325.6Q692.7 330.4 697.3 332.6Q696.6 333.4 696 334.3Q691.5 331.4 689.1 327.2Q686.7 331.2 682.1 334.4Q681.4 333.4 680.8 332.8Q685.9 329.8 688.3 325.1ZM682.4 341.5Q682.5 342.7 682.6 343.4Q680.1 345.1 678.1 346.7L677 345.2Q677.8 344.6 677.8 343.2V334.4H674.9V332.7H679.5V343.6Q680.9 342.7 682.4 341.5ZM677.6 325.3Q680 327.8 681.1 329.1L679.6 330.4Q678.1 328.5 676.2 326.5Z M705.6 336.4Q705.6 335.8 706.1 335.4Q706.5 335 707.1 335Q707.7 335 708.1 335.4Q708.6 335.8 708.6 336.4Q708.6 337 708.1 337.4Q707.7 337.8 707.1 337.8Q706.5 337.8 706.1 337.4Q705.6 337 705.6 336.4Z M717.2 341.2H720.4V329.7H727V328.1H717.5V326.6H727V324.9H728.8V326.6H738.7V328.1H728.8V329.7H735.9V341.2H739.2V342.6H717.2ZM722.2 341.2H734.1V339.7H722.2ZM734.1 331.1H722.2V332.6H734.1ZM722.2 335.5H734.1V333.9H722.2ZM722.2 338.3H734.1V336.8H722.2ZM730.1 344.3 730.9 342.9Q734.3 343.9 738.8 345.5L738 347.1Q734 345.5 730.1 344.3ZM725.2 342.8 726.2 344.1Q722.6 345.8 718.4 347.2Q718 346.5 717.6 345.6Q721 344.6 725.2 342.8Z M740.1 345.4Q748.3 343.9 750.7 340.5H740.4V338.8H751.6Q752.3 336.5 752.2 330.7H754.1Q754.1 336.5 753.5 338.8H762V340.5H752.9Q752.7 340.9 752.5 341.3Q757.3 343.3 761.9 345.4L760.9 347.2Q756.1 344.7 751.4 342.6Q748.3 345.6 741.1 347.2Q740.6 346.2 740.1 345.4ZM740.8 328.1H751.1Q750.6 327.1 749.6 325.8L751.3 324.8Q752 325.8 753.1 327.4L751.8 328.1H761.4V332.1H759.6V329.8H742.6V332.1H740.8ZM743.6 334.2Q746.2 335.3 748.5 336.6L747.5 338.2Q745.2 336.8 742.7 335.6ZM745.6 330.7Q748.2 332 750.4 333.3L749.4 334.8Q747.3 333.5 744.7 332.1Z M772 328V326.3H784.4V328H778.6Q777.8 330.6 776.9 333H778.3V346.9H776.6V333.8Q774.3 339 771 343.1Q770.5 342.5 769.6 342Q774.5 336.1 776.8 328ZM763 340.7Q764.6 340.3 766.4 339.8V334.5H763.4V332.9H766.4V328.8H763.3V327.1H771.2V328.8H768.2V332.9H771.2V334.5H768.2V339.3Q769.6 339 771 338.6Q771 339.4 771 340.1Q766.5 341.5 763.3 342.6ZM780.1 333.5Q783.5 338.1 785.3 341L783.8 342.2Q781.4 338.2 778.7 334.5Z M794 334.2H806.3V341.9H804.8V341.4H802.7V343.8Q802.7 345 803.8 345H805.3Q806.4 345 806.5 343.9Q806.6 343 806.7 341.8Q807.5 342.2 808.4 342.5Q808.2 343.9 808 344.6Q807.6 346.5 805.5 346.5H803.4Q801.1 346.5 801.1 344.3V341.4H799Q798.7 343.8 797.1 345Q795.7 346.1 792.3 347.1Q791.8 346.3 791.2 345.6Q794.7 344.8 796 343.8Q797.1 342.9 797.3 341.4H795.6V341.9H794ZM786 341.6Q787.2 341.3 788.8 340.9V332.3H786.3V330.7H788.8V325.1H790.5V330.7H792.8V332.3H790.5V340.4Q791.7 340.1 793.2 339.7Q793.2 340.7 793.2 341.4Q789.8 342.3 786.4 343.4ZM793.2 331.3H797.3Q796.7 330.4 795.9 329.4L797.2 328.6Q798.2 329.7 798.9 330.8L798.1 331.3H801.5Q802.4 330 803.2 328.5L804.8 329.4Q804 330.4 803.3 331.3H807.9V332.7H793.2ZM793.8 327.1H799.7Q799.3 326.3 798.8 325.5L800.4 324.8Q801.1 326 801.6 327.1H807.2V328.4H793.8ZM795.6 340.1H804.8V338.4H795.6ZM804.8 335.5H795.6V337.1H804.8Z M809.1 343Q818.1 338.3 822 331.3H809.7V329.5H823.3V325H825.2V329.5H831V331.3H825.2V343.2Q825.2 346.4 822.2 346.4Q820.5 346.4 818.1 346.4Q817.9 345.4 817.7 344.3Q819.9 344.5 821.8 344.5Q823.3 344.5 823.3 342.8V332.3Q819.2 339.8 810.4 344.6Q809.9 344 809.1 343Z M835.1 329.2 834.6 335.4H836.9L837.4 327.8H832.3V326.3H839.1L838.5 335.4H839.9Q839.7 340.1 839.6 343.2Q839.5 346.6 836.6 346.6Q835.4 346.6 833.8 346.5Q833.6 345.7 833.5 344.8Q835.1 345 836.3 345Q837.9 345 838 343Q838.1 340.6 838.2 336.9H832.8L833.6 329.2ZM840 344.4H848.2Q849.8 340.4 851 336L852.7 336.6Q851.4 340.6 849.9 344.4H853.9V345.9H840ZM848.2 325 847.8 325.8Q850.5 330.6 854.5 332.8Q853.8 333.7 853.3 334.4Q849.4 331.4 846.9 327.3Q844.6 331.4 840.5 334.6Q840.1 334 839.4 333.2Q843.8 330.1 846.2 325ZM842.3 333.3H851.6V334.8H842.3ZM845.1 336.2 846.7 335.7Q847.6 339.1 848.2 341.6L846.6 342.1Q845.9 339 845.1 336.2ZM841.2 337.2 842.8 336.7Q843.9 339.9 844.6 342.4L842.9 342.9Q842.2 340.1 841.2 337.2ZM831.8 340.3Q834.4 339.8 837.5 339Q837.5 339.9 837.5 340.6Q835 341.2 832.1 341.9Z M862.7 334.4Q865.6 329.5 866.9 324.8L868.7 325.3Q868 327.4 867.2 329.3H877V331H874.3Q874 337.5 871 341.6Q873.3 343.6 877.5 345.1Q876.8 345.9 876.2 346.9Q872.2 345.2 869.8 342.9Q867.6 345.1 863.8 347.1Q863.3 346.3 862.7 345.6Q866.5 343.6 868.6 341.6Q866 338.3 865.2 333.5Q864.6 334.7 863.9 335.9Q863.5 335.2 862.7 334.4ZM860.7 325H862.4V346.9H860.7V340Q859.3 340.8 857.9 341.7Q857.3 342.1 856.8 342.7L855.5 341.2Q856.2 340.5 856.2 339.3V328.1H857.9V339.6Q859.2 338.9 860.7 338.1ZM872.6 331H866.6Q866.9 336.4 869.8 340.2Q872.3 336.6 872.6 331Z" fill="#94A3B8"/>
  <rect x="206" y="416" width="272" height="100" rx="18" fill="#131A31" stroke="#8B5CF6" stroke-width="2"/>
  <path d="M297.8 448.1Q297.7 452.9 297.2 455.8H305.4V458.7H296.5Q296.4 458.8 296.3 459.1Q300.8 460.6 305.3 462.2L304.1 465.2Q299.3 463.2 294.6 461.4Q291.6 464.3 285.2 465.4Q284.1 463.4 283.2 462.3Q290.8 461.2 292.9 458.7H282.6V455.8H290Q287.6 454.3 285.5 453.3L286.9 451Q289.1 452 291.9 453.6L290.4 455.8H293.9Q294.5 452.8 294.6 448.1ZM283.1 450.5V444.4H292.6Q292.1 443.2 291.8 442.4L295.8 442Q296.1 442.9 296.6 444.4H304.9V450.5H301.6V447.2H286.4V450.5ZM288.8 447.9Q291.3 448.9 293.9 450.2L292.4 452.6Q289.6 451.1 287.4 450.1Z M315.3 457.6V442.9H328.1V457.4H325V445.9H318.4V457.6ZM307.3 464.1 306.3 460.7 309 459.7V453.9H306.8V450.8H309V446.3H306.6V443.2H314.6V446.3H312.1V450.8H314.3V453.9H312.1V458.5Q313.5 458 314.4 457.5Q314.5 459.4 314.7 460.8Q310.8 462.5 307.3 464.1ZM326.6 458.2Q328.5 459.1 329.6 459.5Q329.1 463.3 328.4 464Q327.6 464.7 326.6 464.7H324.1Q321.3 464.7 321.3 462.1V459Q319.4 462.7 315.2 465.2Q314.2 463.9 312.9 462.5Q317.1 460.4 318.6 457.6Q320.1 454.9 320 447.4H323.2Q323.2 452.4 322.4 455.7H324.2V461Q324.2 462 325.2 462Q326 462 326.2 461.5Q326.5 460.9 326.6 458.2Z M346 441.9 349.8 442.9Q349.1 443.7 348.4 444.6H353.6V447.3H330.4V444.6H335.4Q334.8 443.7 334.3 442.9L337.8 441.9Q338.7 443.3 339.5 444.6H344.2Q345.1 443.2 346 441.9ZM349.1 448.3H352.3V461.3Q352.3 462.9 351.6 463.7Q350.9 464.6 349.7 464.8Q348.4 465 345.2 465Q345 463.6 344.6 461.7Q346.7 461.8 347.8 461.8Q349.1 461.8 349.1 460.3ZM334.9 464.9H331.7V448.6H342.8V461.6Q342.8 463.1 342.1 463.9Q341.4 464.8 340.1 464.9Q338.9 465 337.1 465Q336.7 462.9 336.4 461.8Q338.2 461.9 338.5 461.9Q339.7 461.9 339.7 460.7V459.9H334.9ZM339.7 451.5H334.9V453.2H339.7ZM334.9 457.4H339.7V455.7H334.9ZM344.5 449H347.4V460.2H344.5Z M358.5 443 361.5 441.9Q362.8 444.1 364.1 446.8L360.8 448Q359.6 445.1 358.5 443ZM376.6 460.6Q376.6 462.7 375.7 463.7Q374.9 464.7 373.3 464.9Q371.8 465 367.6 465Q367.3 463.4 366.7 461.6Q368.7 461.7 370.9 461.7Q373.2 461.7 373.2 459.7V446.7H364.7V443.5H376.6ZM355.4 445.3H358.8V464.9H355.4Z M390.3 444.2H393.7V442H396.5V444.2H400.9V446.5H397.2Q399.1 448.7 401.8 450Q400.8 451.3 400.1 452.3Q398.1 450.8 396.5 448.7V452.3H393.7V448.7Q392.3 450.9 390.4 452.5Q389.7 451.6 388.6 450.4Q391.3 448.7 393 446.5H390.3ZM386.8 447Q388.1 447.7 389.6 448.7L388.1 450.7Q387 449.9 385.9 449.2V452.3H383V449Q381.6 451 379.9 452.3Q379.1 451.2 378.2 450.1Q380.6 448.6 382.4 446.5H379V444.2H383V442H385.9V444.2H389.4V446.5H385.9V448.2ZM380.2 452.9H400.2V455.3H380.2ZM385.1 459.2 386.8 461.4Q386.1 461.9 385.3 462.3Q386.7 462.4 388.1 462.4Q388.9 462.4 388.9 461.4V459.1H378.4V456.6H401.7V459.1H392.1V462Q392.1 463.4 391.5 464.1Q391 464.8 390.1 464.9Q389.2 465.1 385.8 465.1Q385.5 463.4 385.2 462.3Q382.3 463.9 380 464.9Q379.1 463.4 378.3 462.3Q381.5 461.2 385.1 459.2ZM394.5 459.4Q397.8 460.6 401.5 462.4L400.1 464.9Q396.7 463.1 393.2 461.7Z" fill="#F1F5F9"/>
  <path d="M244.6 493.2V498H243.1V485.4H246.6Q248.6 485.4 249.7 486.4Q250.8 487.4 250.8 489.2Q250.8 491 249.6 492.1Q248.3 493.2 246.2 493.2ZM244.6 486.7V491.9H246.1Q247.7 491.9 248.5 491.2Q249.3 490.5 249.3 489.2Q249.3 486.7 246.3 486.7Z M257.7 490.5Q257.3 490.2 256.6 490.2Q255.7 490.2 255 491Q254.4 491.9 254.4 493.4V498H253V489H254.4V490.9H254.5Q254.8 489.9 255.4 489.4Q256 488.8 256.8 488.8Q257.4 488.8 257.7 489Z M266.5 493.9H260.1Q260.2 495.4 260.9 496.2Q261.7 497 263.1 497Q264.6 497 265.9 496V497.3Q264.7 498.2 262.7 498.2Q260.8 498.2 259.7 497Q258.6 495.8 258.6 493.5Q258.6 491.4 259.8 490.1Q261 488.8 262.8 488.8Q264.5 488.8 265.5 489.9Q266.5 491.1 266.5 493.1ZM265 492.6Q265 491.4 264.4 490.7Q263.8 490 262.8 490Q261.7 490 261 490.7Q260.3 491.5 260.1 492.6Z M273.3 493.6H268.5V492.4H273.3Z M277.5 498H276.1V485.4H277.5Z M293.4 498H292V492.8Q292 491.3 291.5 490.7Q291.1 490 290 490Q289.1 490 288.4 490.8Q287.8 491.7 287.8 492.9V498H286.3V492.7Q286.3 490 284.3 490Q283.3 490 282.7 490.8Q282.1 491.6 282.1 492.9V498H280.6V489H282.1V490.4H282.1Q283.1 488.8 284.9 488.8Q285.8 488.8 286.5 489.3Q287.2 489.8 287.5 490.7Q288.5 488.8 290.5 488.8Q293.4 488.8 293.4 492.5Z M297.6 496.7H297.6V502.1H296.2V489H297.6V490.6H297.6Q298.7 488.8 300.7 488.8Q302.5 488.8 303.5 490Q304.4 491.2 304.4 493.2Q304.4 495.5 303.3 496.9Q302.2 498.2 300.3 498.2Q298.6 498.2 297.6 496.7ZM297.6 493.1V494.3Q297.6 495.4 298.3 496.2Q299 497 300.2 497Q301.5 497 302.2 496Q303 495 303 493.2Q303 491.7 302.3 490.9Q301.6 490 300.4 490Q299.1 490 298.4 490.9Q297.6 491.8 297.6 493.1Z M308.2 498H306.7V484.7H308.2Z M318.3 493.9H312Q312 495.4 312.8 496.2Q313.6 497 314.9 497Q316.4 497 317.7 496V497.3Q316.5 498.2 314.6 498.2Q312.7 498.2 311.6 497Q310.5 495.8 310.5 493.5Q310.5 491.4 311.7 490.1Q312.9 488.8 314.6 488.8Q316.4 488.8 317.4 489.9Q318.3 491.1 318.3 493.1ZM316.9 492.6Q316.8 491.4 316.2 490.7Q315.7 490 314.6 490Q313.6 490 312.9 490.7Q312.2 491.5 312 492.6Z M333.3 498H331.8V492.8Q331.8 491.3 331.4 490.7Q330.9 490 329.8 490Q328.9 490 328.3 490.8Q327.6 491.7 327.6 492.9V498H326.2V492.7Q326.2 490 324.1 490Q323.2 490 322.6 490.8Q321.9 491.6 321.9 492.9V498H320.5V489H321.9V490.4H322Q322.9 488.8 324.8 488.8Q325.7 488.8 326.4 489.3Q327.1 489.8 327.3 490.7Q328.3 488.8 330.3 488.8Q333.3 488.8 333.3 492.5Z M343.2 493.9H336.9Q336.9 495.4 337.7 496.2Q338.5 497 339.8 497Q341.3 497 342.6 496V497.3Q341.4 498.2 339.5 498.2Q337.6 498.2 336.5 497Q335.4 495.8 335.4 493.5Q335.4 491.4 336.6 490.1Q337.8 488.8 339.5 488.8Q341.3 488.8 342.3 489.9Q343.2 491.1 343.2 493.1ZM341.8 492.6Q341.8 491.4 341.2 490.7Q340.6 490 339.5 490Q338.5 490 337.8 490.7Q337.1 491.5 336.9 492.6Z M352.9 498H351.5V492.9Q351.5 490 349.4 490Q348.3 490 347.6 490.8Q346.9 491.6 346.9 492.9V498H345.4V489H346.9V490.5H346.9Q347.9 488.8 349.9 488.8Q351.3 488.8 352.1 489.7Q352.9 490.7 352.9 492.5Z M359.8 497.9Q359.3 498.2 358.4 498.2Q356.1 498.2 356.1 495.6V490.2H354.5V489H356.1V486.8L357.5 486.3V489H359.8V490.2H357.5V495.3Q357.5 496.2 357.8 496.6Q358.1 497 358.8 497Q359.4 497 359.8 496.7Z M368.2 498H366.7V496.6H366.7Q365.7 498.2 363.9 498.2Q362.6 498.2 361.8 497.5Q361 496.8 361 495.6Q361 493.1 364 492.7L366.7 492.3Q366.7 490 364.9 490Q363.2 490 361.9 491.1V489.6Q363.2 488.8 365 488.8Q368.2 488.8 368.2 492.1ZM366.7 493.4 364.5 493.7Q363.5 493.9 363 494.2Q362.5 494.6 362.5 495.5Q362.5 496.2 363 496.6Q363.5 497 364.2 497Q365.3 497 366 496.2Q366.7 495.5 366.7 494.3Z M375 497.9Q374.5 498.2 373.7 498.2Q371.3 498.2 371.3 495.6V490.2H369.8V489H371.3V486.8L372.8 486.3V489H375V490.2H372.8V495.3Q372.8 496.2 373.1 496.6Q373.4 497 374.1 497Q374.6 497 375 496.7Z M377.7 486.7Q377.3 486.7 377 486.5Q376.8 486.2 376.8 485.8Q376.8 485.4 377 485.1Q377.3 484.8 377.7 484.8Q378.1 484.8 378.4 485.1Q378.7 485.4 378.7 485.8Q378.7 486.2 378.4 486.4Q378.1 486.7 377.7 486.7ZM378.4 498H377V489H378.4Z M385.1 498.2Q383.1 498.2 381.9 496.9Q380.7 495.7 380.7 493.6Q380.7 491.3 382 490.1Q383.2 488.8 385.3 488.8Q387.3 488.8 388.4 490Q389.6 491.3 389.6 493.5Q389.6 495.6 388.4 496.9Q387.1 498.2 385.1 498.2ZM385.2 490Q383.8 490 383 490.9Q382.2 491.9 382.2 493.6Q382.2 495.2 383 496.1Q383.8 497 385.2 497Q386.6 497 387.3 496.1Q388.1 495.2 388.1 493.5Q388.1 491.8 387.3 490.9Q386.6 490 385.2 490Z M399.3 498H397.9V492.9Q397.9 490 395.8 490Q394.7 490 394 490.8Q393.3 491.6 393.3 492.9V498H391.9V489H393.3V490.5H393.4Q394.4 488.8 396.3 488.8Q397.8 488.8 398.6 489.7Q399.3 490.7 399.3 492.5Z M416.6 497.1Q414.7 498.2 412.4 498.2Q409.7 498.2 408 496.5Q406.4 494.7 406.4 491.9Q406.4 488.9 408.2 487.1Q410.1 485.2 412.9 485.2Q415 485.2 416.4 485.9V487.5Q414.8 486.5 412.7 486.5Q410.6 486.5 409.3 488Q407.9 489.4 407.9 491.8Q407.9 494.2 409.2 495.5Q410.4 496.9 412.6 496.9Q414 496.9 415.1 496.3V492.8H412.4V491.4H416.6Z M425.8 498H424.3V496.6H424.3Q423.4 498.2 421.5 498.2Q420.2 498.2 419.4 497.5Q418.7 496.8 418.7 495.6Q418.7 493.1 421.6 492.7L424.3 492.3Q424.3 490 422.5 490Q420.9 490 419.6 491.1V489.6Q420.9 488.8 422.6 488.8Q425.8 488.8 425.8 492.1ZM424.3 493.4 422.2 493.7Q421.2 493.9 420.7 494.2Q420.1 494.6 420.1 495.5Q420.1 496.2 420.6 496.6Q421.1 497 421.9 497Q422.9 497 423.6 496.2Q424.3 495.5 424.3 494.3Z M432.7 497.9Q432.2 498.2 431.3 498.2Q429 498.2 429 495.6V490.2H427.4V489H429V486.8L430.4 486.3V489H432.7V490.2H430.4V495.3Q430.4 496.2 430.7 496.6Q431 497 431.7 497Q432.3 497 432.7 496.7Z M441.8 493.9H435.5Q435.5 495.4 436.3 496.2Q437.1 497 438.4 497Q439.9 497 441.2 496V497.3Q440 498.2 438.1 498.2Q436.2 498.2 435.1 497Q434 495.8 434 493.5Q434 491.4 435.2 490.1Q436.4 488.8 438.1 488.8Q439.9 488.8 440.9 489.9Q441.8 491.1 441.8 493.1ZM440.4 492.6Q440.3 491.4 439.8 490.7Q439.2 490 438.1 490Q437.1 490 436.4 490.7Q435.7 491.5 435.5 492.6Z" fill="#8B5CF6"/>
  <rect x="504" y="416" width="272" height="100" rx="18" fill="#131A31" stroke="#06B6D4" stroke-width="2"/>
  <path d="M570.2 444H589.8V447.5H570.2ZM571.2 451.9H588.7V455.3H571.2ZM568.7 460.3H591.3V463.7H568.7Z M610.2 465.1H607.2V457.4H605.1V458.9H602.2V456L600.4 457.7L598.7 455.8V465.1H595.8V457.4Q594.7 459.7 593.4 461.5Q593 460 592.3 457.8Q594.5 455.2 595.7 451.8H592.5V448.8H595.8V446.2L593.1 446.4Q592.9 444.9 592.6 443.7Q596.5 443.3 600.9 442.7L601.6 445.4Q600.3 445.6 598.7 445.8V448.8H601.5V451.8H598.7V453.9L599.4 453.2Q601.1 454.6 602.2 455.8V446.7H607.2V442.1H610.2V446.7H615.1V458.9H612.2V457.4H610.2ZM612.2 449.5H610.2V454.6H612.2ZM605.1 454.6H607.2V449.5H605.1Z M630 464.8Q629.6 463.2 629.1 461.6Q630.6 461.7 631.5 461.7Q633.2 461.7 633.5 460.9Q633.9 460.1 633.9 449.1H631.2Q631 459.9 625 465.3Q623.9 464.1 622.4 462.8Q627.8 458.4 628 449.1H624.2V446.1H628V442.1H631.2Q631.2 444.2 631.2 446.1H637.1L637 451.6Q638.5 452.7 639.7 453.8L639 457.6Q637.9 456.4 637 455.4L636.9 460.6Q636.8 462.5 636 463.5Q635.2 464.5 633.9 464.7Q632.5 464.8 630 464.8ZM616.4 448.3H618.5V442.2H621.5V448.3H623.4V451.1H621.5V465.1H618.5V451.1H616.4ZM622.2 456.6Q623.5 453.8 624.3 450.6L626.9 451.2Q626 454.5 624.8 457.6Q623.6 457.1 622.2 456.6Z M662.3 454.6H655.9V457.4H662.8V460.4H655.9V465.1H652.6V448.7H651.9Q650.5 451.9 648.7 454.3Q648 453.1 646.9 451.3Q649.5 447.3 651 442L654.1 442.7Q653.6 444.3 653.1 445.7H663.6V448.7H655.9V451.6H662.3ZM644.9 442.2 648.1 443.1Q647.3 445.4 646.4 447.6V465.1H643.2V453.9Q642.2 455.5 641.2 456.9Q640.9 455.1 640.4 452.6Q643.2 448.1 644.9 442.2Z M684.6 442 686.9 444Q683.7 447.4 679.6 450Q678.6 448.5 677.4 447.2Q681.7 445.1 684.6 442ZM664.6 451.5H667V446.2H665.1V443.4H678V446.2H676V451.5H678.6V454.1Q682.2 452 685.1 448.7L687.4 450.7Q684 454.5 679.7 457.3Q678.8 456.1 677.5 454.8Q677.9 454.6 678.3 454.3H676V464.8H672.9V454.3H670.1Q669.7 461.8 666.9 465.3Q665.4 463.6 664.3 462.6Q666.7 460 667 454.3H664.6ZM670.1 451.5H672.9V446.2H670.1ZM685.3 455.8 687.7 457.7Q683.6 462.5 678.7 465.3Q677.7 463.7 676.6 462.3Q681.6 459.9 685.3 455.8Z M689.1 444.6H698Q698.2 443.4 698.1 442H701.6Q701.5 443.4 701.4 444.6H710.9V447.5H702.9Q706 450.8 711.7 451.9Q710.7 453.6 710 455.3Q703.6 453.4 700 448.1Q697.4 453.3 690.2 455.6Q689.3 453.8 688.3 452.2Q695 450.6 696.9 447.5H689.1ZM698.9 450.7Q700.6 451.7 702.8 453.2L700.7 455.3Q698.7 453.7 697 452.5ZM699.2 454.7Q701.6 456.2 703.6 457.6L701.7 459.9Q699.7 458.3 697.4 456.9ZM708.6 455.6Q710.4 458.3 711.7 461L709 462.5Q707.7 459.7 705.9 456.9ZM704.3 458.7Q706 459.6 707.5 460.1Q706.8 463 705.8 463.9Q704.7 464.8 702.7 464.8H697.4Q693.9 464.8 693.9 461.3V456.4H697V460.5Q697 462 698.4 462H701.9Q703.1 462 703.6 461.5Q704 461 704.3 458.7ZM690.5 456.5 693.4 457.5Q692.2 461.1 691.2 463.3L688.3 462.2Q689.5 459.5 690.5 456.5Z" fill="#F1F5F9"/>
  <path d="M540.2 498H538.8V487.1Q538.6 487.3 538.3 487.5Q537.9 487.7 537.5 487.9Q537.1 488.1 536.7 488.3Q536.3 488.5 535.8 488.6V487.1Q536.3 487 536.8 486.8Q537.4 486.6 537.9 486.3Q538.4 486 538.9 485.7Q539.3 485.4 539.6 485.1H540.2Z M550.1 498V485.4H553.7Q555.3 485.4 556.3 486.2Q557.3 487 557.3 488.3Q557.3 489.4 556.7 490.1Q556.1 490.9 555.1 491.3V491.3Q556.3 491.5 557.1 492.3Q557.9 493.1 557.9 494.4Q557.9 496 556.7 497Q555.6 498 553.8 498ZM551.6 486.7V490.8H553.1Q554.3 490.8 555 490.2Q555.7 489.6 555.7 488.6Q555.7 486.7 553.3 486.7ZM551.6 492.1V496.7H553.6Q554.9 496.7 555.6 496Q556.3 495.4 556.3 494.4Q556.3 492.1 553.3 492.1Z M566.7 498H565.2V496.6H565.2Q564.3 498.2 562.4 498.2Q561.1 498.2 560.3 497.5Q559.6 496.8 559.6 495.6Q559.6 493.1 562.5 492.7L565.2 492.3Q565.2 490 563.4 490Q561.8 490 560.5 491.1V489.6Q561.8 488.8 563.5 488.8Q566.7 488.8 566.7 492.1ZM565.2 493.4 563.1 493.7Q562.1 493.9 561.6 494.2Q561 494.6 561 495.5Q561 496.2 561.5 496.6Q562 497 562.8 497Q563.8 497 564.5 496.2Q565.2 495.5 565.2 494.3Z M575.5 497.6Q574.5 498.2 573.1 498.2Q571.1 498.2 570 497Q568.8 495.7 568.8 493.7Q568.8 491.5 570.1 490.1Q571.3 488.8 573.5 488.8Q574.6 488.8 575.5 489.2V490.7Q574.5 490 573.4 490Q572 490 571.1 491Q570.3 492 570.3 493.6Q570.3 495.2 571.1 496.1Q571.9 497 573.3 497Q574.5 497 575.5 496.2Z M585.2 498H583.2L579.2 493.7H579.2V498H577.7V484.7H579.2V493.1H579.2L583 489H584.9L580.7 493.3Z M588.1 496.7H588.1V498H586.7V484.7H588.1V490.6H588.1Q589.2 488.8 591.2 488.8Q593 488.8 594 490Q594.9 491.2 594.9 493.2Q594.9 495.5 593.8 496.9Q592.7 498.2 590.8 498.2Q589 498.2 588.1 496.7ZM588.1 493.1V494.3Q588.1 495.4 588.8 496.2Q589.6 497 590.7 497Q592 497 592.7 496Q593.5 495 593.5 493.2Q593.5 491.7 592.8 490.9Q592.1 490 590.9 490Q589.6 490 588.9 490.9Q588.1 491.8 588.1 493.1Z M601 498.2Q599 498.2 597.8 496.9Q596.6 495.7 596.6 493.6Q596.6 491.3 597.9 490.1Q599.1 488.8 601.2 488.8Q603.2 488.8 604.4 490Q605.5 491.3 605.5 493.5Q605.5 495.6 604.3 496.9Q603.1 498.2 601 498.2ZM601.1 490Q599.7 490 598.9 490.9Q598.1 491.9 598.1 493.6Q598.1 495.2 598.9 496.1Q599.7 497 601.1 497Q602.5 497 603.3 496.1Q604 495.2 604 493.5Q604 491.8 603.3 490.9Q602.5 490 601.1 490Z M615.3 498H613.8V492.9Q613.8 490 611.7 490Q610.6 490 609.9 490.8Q609.2 491.6 609.2 492.9V498H607.8V489H609.2V490.5H609.3Q610.3 488.8 612.2 488.8Q613.7 488.8 614.5 489.7Q615.3 490.7 615.3 492.5Z M625.2 493.9H618.9Q618.9 495.4 619.7 496.2Q620.4 497 621.8 497Q623.3 497 624.6 496V497.3Q623.4 498.2 621.4 498.2Q619.5 498.2 618.4 497Q617.4 495.8 617.4 493.5Q617.4 491.4 618.6 490.1Q619.7 488.8 621.5 488.8Q623.3 488.8 624.2 489.9Q625.2 491.1 625.2 493.1ZM623.7 492.6Q623.7 491.4 623.1 490.7Q622.5 490 621.5 490Q620.5 490 619.8 490.7Q619 491.5 618.9 492.6Z M641.2 493.3H637.6V496.9H636.4V493.3H632.9V492.2H636.4V488.6H637.6V492.2H641.2Z M654.9 488.7Q654.9 488.1 654.7 487.7Q654.5 487.3 654.2 487Q653.9 486.7 653.5 486.5Q653.1 486.4 652.6 486.4Q652.1 486.4 651.7 486.5Q651.3 486.6 651 486.8Q650.6 487 650.2 487.3Q649.9 487.6 649.6 487.9V486.4Q650.2 485.8 650.9 485.5Q651.7 485.2 652.7 485.2Q653.5 485.2 654.2 485.4Q654.8 485.6 655.3 486.1Q655.8 486.5 656.1 487.1Q656.4 487.8 656.4 488.6Q656.4 489.3 656.2 489.9Q656 490.5 655.7 491.1Q655.3 491.6 654.8 492.1Q654.3 492.6 653.6 493.1Q652.7 493.7 652.1 494.2Q651.5 494.6 651.2 495Q650.8 495.4 650.7 495.8Q650.6 496.2 650.6 496.7H656.8V498H649.1V497.4Q649.1 496.6 649.2 496Q649.4 495.3 649.8 494.8Q650.2 494.2 650.9 493.7Q651.5 493.1 652.5 492.4Q653.2 491.9 653.6 491.5Q654.1 491 654.4 490.6Q654.7 490.1 654.8 489.7Q654.9 489.2 654.9 488.7Z M671.1 498H664.4V485.4H670.8V486.7H665.9V490.9H670.4V492.3H665.9V496.7H671.1Z M679.9 489 676.9 493.6 679.8 498H678.1L676.4 495.1Q676.2 494.8 676 494.4H675.9Q675.9 494.5 675.5 495.1L673.7 498H672.1L675.1 493.6L672.2 489H673.9L675.6 492.1Q675.8 492.4 676 492.8H676L678.3 489Z M685.7 497.9Q685.2 498.2 684.4 498.2Q682 498.2 682 495.6V490.2H680.5V489H682V486.8L683.5 486.3V489H685.7V490.2H683.5V495.3Q683.5 496.2 683.8 496.6Q684.1 497 684.8 497Q685.3 497 685.7 496.7Z M694.9 493.9H688.5Q688.6 495.4 689.4 496.2Q690.1 497 691.5 497Q693 497 694.3 496V497.3Q693.1 498.2 691.1 498.2Q689.2 498.2 688.1 497Q687 495.8 687 493.5Q687 491.4 688.2 490.1Q689.4 488.8 691.2 488.8Q693 488.8 693.9 489.9Q694.9 491.1 694.9 493.1ZM693.4 492.6Q693.4 491.4 692.8 490.7Q692.2 490 691.2 490Q690.2 490 689.4 490.7Q688.7 491.5 688.6 492.6Z M704.5 498H703.1V492.9Q703.1 490 701 490Q699.9 490 699.2 490.8Q698.5 491.6 698.5 492.9V498H697.1V489H698.5V490.5H698.6Q699.6 488.8 701.5 488.8Q703 488.8 703.8 489.7Q704.5 490.7 704.5 492.5Z M706.7 497.7V496.1Q707.9 497 709.3 497Q711.2 497 711.2 495.7Q711.2 495.4 711 495.1Q710.9 494.9 710.6 494.7Q710.3 494.5 710 494.3Q709.6 494.2 709.2 494Q708.6 493.8 708.1 493.5Q707.6 493.3 707.3 493Q707 492.7 706.9 492.3Q706.7 491.9 706.7 491.4Q706.7 490.8 707 490.3Q707.3 489.8 707.8 489.5Q708.3 489.1 708.9 489Q709.5 488.8 710.2 488.8Q711.3 488.8 712.3 489.2V490.7Q711.3 490 710 490Q709.6 490 709.3 490.1Q708.9 490.2 708.7 490.4Q708.5 490.5 708.3 490.8Q708.2 491 708.2 491.3Q708.2 491.6 708.3 491.9Q708.5 492.1 708.7 492.3Q709 492.5 709.3 492.6Q709.7 492.8 710.1 492.9Q710.7 493.2 711.2 493.4Q711.7 493.6 712 494Q712.3 494.3 712.5 494.7Q712.7 495 712.7 495.6Q712.7 496.3 712.4 496.8Q712.1 497.2 711.6 497.6Q711.1 497.9 710.5 498.1Q709.8 498.2 709.1 498.2Q707.7 498.2 706.7 497.7Z M715.6 486.7Q715.3 486.7 715 486.5Q714.7 486.2 714.7 485.8Q714.7 485.4 715 485.1Q715.3 484.8 715.6 484.8Q716 484.8 716.3 485.1Q716.6 485.4 716.6 485.8Q716.6 486.2 716.3 486.4Q716 486.7 715.6 486.7ZM716.3 498H714.9V489H716.3Z M723 498.2Q721 498.2 719.8 496.9Q718.6 495.7 718.6 493.6Q718.6 491.3 719.9 490.1Q721.1 488.8 723.2 488.8Q725.2 488.8 726.4 490Q727.5 491.3 727.5 493.5Q727.5 495.6 726.3 496.9Q725.1 498.2 723 498.2ZM723.1 490Q721.7 490 720.9 490.9Q720.1 491.9 720.1 493.6Q720.1 495.2 720.9 496.1Q721.8 497 723.1 497Q724.5 497 725.3 496.1Q726 495.2 726 493.5Q726 491.8 725.3 490.9Q724.5 490 723.1 490Z M737.3 498H735.8V492.9Q735.8 490 733.7 490Q732.7 490 732 490.8Q731.2 491.6 731.2 492.9V498H729.8V489H731.2V490.5H731.3Q732.3 488.8 734.2 488.8Q735.7 488.8 736.5 489.7Q737.3 490.7 737.3 492.5Z M739.4 497.7V496.1Q740.6 497 742 497Q743.9 497 743.9 495.7Q743.9 495.4 743.8 495.1Q743.6 494.9 743.3 494.7Q743.1 494.5 742.7 494.3Q742.3 494.2 741.9 494Q741.3 493.8 740.8 493.5Q740.4 493.3 740.1 493Q739.8 492.7 739.6 492.3Q739.5 491.9 739.5 491.4Q739.5 490.8 739.8 490.3Q740 489.8 740.5 489.5Q741 489.1 741.6 489Q742.3 488.8 742.9 488.8Q744.1 488.8 745 489.2V490.7Q744 490 742.7 490Q742.3 490 742 490.1Q741.7 490.2 741.4 490.4Q741.2 490.5 741.1 490.8Q740.9 491 740.9 491.3Q740.9 491.6 741.1 491.9Q741.2 492.1 741.4 492.3Q741.7 492.5 742 492.6Q742.4 492.8 742.8 492.9Q743.4 493.2 743.9 493.4Q744.4 493.6 744.7 494Q745.1 494.3 745.2 494.7Q745.4 495 745.4 495.6Q745.4 496.3 745.1 496.8Q744.8 497.2 744.3 497.6Q743.8 497.9 743.2 498.1Q742.6 498.2 741.9 498.2Q740.5 498.2 739.4 497.7Z" fill="#06B6D4"/>
  <rect x="802" y="416" width="272" height="100" rx="18" fill="#131A31" stroke="#F59E0B" stroke-width="2"/>
  <path d="M857.7 442Q859.1 443.9 860.6 446.3Q859.5 446.9 857.8 448Q856.5 445.7 855.1 443.6ZM861 461H863V449.3H866.1V461H868.6V446.7H861.8V443.6H877.3V446.7H871.8V452H876.8V455H871.8V461H877.6V464.1H861ZM861.6 456.8Q861.7 457.8 862.1 460Q859.9 461.6 857.1 463.9L855.7 461.4Q856.3 460.6 856.3 459.6V452.1H854.4V449.1H859.5V458.4Z M901.6 454.8H896.3V456.8H900.2V465.2H897.4V464H892.2V465.2H889.4V456.8H893.3V454.8H889.2Q888.8 461.2 886.2 465Q885.2 463.7 884.1 462.6Q886.4 458.5 886.4 451.5V442.9H900.6V450.3H896.3V452.4H901.6ZM878.6 446.4H880.9V442.3H883.7V446.4H885.7V449.4H883.7V452.7Q884.7 452.5 885.8 452.2Q885.7 454.1 885.7 455.3Q884.7 455.5 883.7 455.8V462.2Q883.7 464.8 881.6 464.9Q880.3 465 879.2 465Q878.9 463.6 878.5 461.9Q879.3 461.9 880.1 462Q880.9 462 880.9 460.8V456.5Q879.7 456.8 878.6 457.1L878.4 453.9Q879.4 453.7 880.9 453.4V449.4H878.6ZM897.7 447.8V445.4H889.3V447.8ZM897.4 459.2H892.2V461.6H897.4ZM893.3 452.4V450.3H889.3V452.4Z M925 447.9H909.5L909.3 450.6H923.9L923.5 460Q923.4 462.6 922.1 463.7Q920.7 464.8 918.4 464.8H913.4Q913.1 463.3 912.5 461.4Q915 461.5 917.3 461.5Q919.7 461.5 919.9 460Q920.1 458.6 920.2 453.6H905.6L906.3 442.2H909.9L909.7 444.9H925ZM918.7 459.1H902.7V456.1H918.7Z M941.8 448.1Q941.7 452.9 941.2 455.8H949.4V458.7H940.5Q940.4 458.8 940.3 459.1Q944.8 460.6 949.3 462.2L948.1 465.2Q943.3 463.2 938.6 461.4Q935.6 464.3 929.2 465.4Q928.1 463.4 927.2 462.3Q934.8 461.2 936.9 458.7H926.6V455.8H934Q931.6 454.3 929.5 453.3L930.9 451Q933.1 452 935.9 453.6L934.4 455.8H937.9Q938.5 452.8 938.6 448.1ZM927.1 450.5V444.4H936.6Q936.1 443.2 935.8 442.4L939.8 442Q940.1 442.9 940.6 444.4H948.9V450.5H945.6V447.2H930.4V450.5ZM932.8 447.9Q935.3 448.9 937.9 450.2L936.4 452.6Q933.6 451.1 931.4 450.1Z M950.8 446.4H952.7V442.3H955.6V446.4H957.6V449.3H955.6V452.7Q956.4 452.5 957.1 452.3Q957.1 454.1 957.1 455.4L955.6 455.9V462Q955.6 463.4 955.1 464.1Q954.7 464.8 953.5 464.9Q952.4 465.1 951 465.1Q950.8 463.7 950.4 462Q952.1 462.1 952.3 462Q952.4 462 952.6 461.8Q952.7 461.5 952.7 461.1V456.7L950.5 457.4L950.3 453.9Q951.6 453.7 952.7 453.4V449.3H950.8ZM959 442.8H971.5V448.6H959ZM968.6 446.3V445H962V446.3ZM965.9 449.6H972.7V455.3H965.9ZM970.3 453.3V451.6H968.4V453.3ZM957.9 449.6H964.7V455.3H957.9ZM962.2 453.3V451.6H960.3V453.3ZM957.2 456.7H963.7V455.6H966.7V456.7H973.3V459.1H968.1Q970.2 461 973.6 462Q972.7 463.4 972 464.5Q968.7 462.9 966.7 460.5V465.1H963.7V460.5Q961 463.2 958.3 464.6Q957.5 463.7 956.4 462.4Q959.8 460.9 962 459.1H957.2Z M978.3 446.8 977.6 452.7H979.3L979.9 446.1H974.8V443.3H982.9L982.1 452.7H983.5Q983.2 459.4 983 461.2Q982.9 464.1 980.9 464.5Q979.9 464.7 976.4 464.7Q976.2 462.9 975.9 461.5Q977.4 461.7 979.1 461.7Q980.3 461.7 980.4 460.6Q980.5 459 980.6 455.5H974.7L975.5 446.8ZM994.8 452.1H985.9V450.8Q985 451.5 984.1 452.2Q983.5 450.8 982.6 449.3Q986.4 446.5 988.7 442.2H992.3L991.8 443.1Q994.5 447.1 997.9 449Q997.1 450.3 996.3 451.9Q995.5 451.4 994.8 450.8ZM983.6 461.6H991.6Q993 457.3 993.7 453.4L996.6 454.1Q995.7 457.7 994.4 461.6H997.3V464.4H983.6ZM986.2 453.9Q987.4 456.8 988.5 460.1L985.9 461Q985.2 458.3 983.8 454.7ZM990.6 452.9Q991.4 456.1 992 459.2L989.4 459.8Q989 456.9 988.1 453.5ZM974.3 457.4Q976.9 457.2 979.7 456.8Q979.7 458.3 979.8 459.6Q977.1 460 974.7 460.4ZM990.1 445.7Q989 447.4 987.3 449.3H993.2Q991.5 447.5 990.1 445.7Z M1007.2 442.1V451Q1009.8 447.2 1011.1 442L1014.4 442.5Q1013.9 444.1 1013.4 445.6H1021.5V448.7H1019.9Q1019.2 454.8 1016.6 458.8Q1018.7 460.8 1021.7 461.9Q1020.7 463.3 1019.7 465.1Q1016.7 463.6 1014.5 461.3Q1012.3 463.7 1009.1 465.3Q1008.3 463.6 1007.3 462.1Q1010.3 460.6 1012.4 458.6Q1010.8 456.2 1009.9 453.1Q1009.5 453.6 1009.2 454.2Q1008.3 452.7 1007.2 451.3V465.2H1004.1V458.4Q1001.2 459.9 999.7 461L998.4 458Q999.2 457.3 999.2 456.3V444.4H1002.1V456.3L1004.1 455.2V442.1ZM1014.4 456.1Q1016.1 453.2 1016.9 448.7H1012.2Q1012.1 449.1 1011.9 449.4Q1012.6 453.3 1014.4 456.1Z" fill="#F1F5F9"/>
  <path d="M858.5 498H851.9V485.4H858.3V486.7H853.3V490.9H857.9V492.3H853.3V496.7H858.5Z M867.8 489 864.3 498H862.8L859.4 489H861L863.3 495.5Q863.6 496.3 863.6 496.8H863.6Q863.7 496.1 863.9 495.6L866.3 489Z M870.1 486.7Q869.7 486.7 869.5 486.5Q869.2 486.2 869.2 485.8Q869.2 485.4 869.5 485.1Q869.7 484.8 870.1 484.8Q870.5 484.8 870.8 485.1Q871.1 485.4 871.1 485.8Q871.1 486.2 870.8 486.4Q870.5 486.7 870.1 486.7ZM870.8 498H869.4V489H870.8Z M881.4 498H880V496.5H880Q879 498.2 876.9 498.2Q875.2 498.2 874.1 497Q873.1 495.8 873.1 493.7Q873.1 491.5 874.3 490.1Q875.4 488.8 877.3 488.8Q879.1 488.8 880 490.2H880V484.7H881.4ZM880 493.9V492.6Q880 491.5 879.3 490.8Q878.5 490 877.4 490Q876.1 490 875.4 491Q874.6 491.9 874.6 493.6Q874.6 495.2 875.3 496.1Q876.1 497 877.3 497Q878.5 497 879.2 496.1Q880 495.3 880 493.9Z M891.6 493.9H885.2Q885.3 495.4 886 496.2Q886.8 497 888.2 497Q889.7 497 891 496V497.3Q889.8 498.2 887.8 498.2Q885.9 498.2 884.8 497Q883.7 495.8 883.7 493.5Q883.7 491.4 884.9 490.1Q886.1 488.8 887.9 488.8Q889.6 488.8 890.6 489.9Q891.6 491.1 891.6 493.1ZM890.1 492.6Q890.1 491.4 889.5 490.7Q888.9 490 887.9 490Q886.8 490 886.1 490.7Q885.4 491.5 885.2 492.6Z M901.2 498H899.8V492.9Q899.8 490 897.7 490Q896.6 490 895.9 490.8Q895.2 491.6 895.2 492.9V498H893.8V489H895.2V490.5H895.2Q896.3 488.8 898.2 488.8Q899.7 488.8 900.4 489.7Q901.2 490.7 901.2 492.5Z M910.1 497.6Q909 498.2 907.6 498.2Q905.7 498.2 904.5 497Q903.3 495.7 903.3 493.7Q903.3 491.5 904.6 490.1Q905.9 488.8 908 488.8Q909.2 488.8 910.1 489.2V490.7Q909.1 490 908 490Q906.6 490 905.7 491Q904.8 492 904.8 493.6Q904.8 495.2 905.6 496.1Q906.5 497 907.9 497Q909 497 910.1 496.2Z M919.5 493.9H913.1Q913.2 495.4 913.9 496.2Q914.7 497 916.1 497Q917.6 497 918.9 496V497.3Q917.7 498.2 915.7 498.2Q913.8 498.2 912.7 497Q911.6 495.8 911.6 493.5Q911.6 491.4 912.8 490.1Q914 488.8 915.8 488.8Q917.6 488.8 918.5 489.9Q919.5 491.1 919.5 493.1ZM918 492.6Q918 491.4 917.4 490.7Q916.8 490 915.8 490Q914.7 490 914 490.7Q913.3 491.5 913.2 492.6Z M937.8 498.2Q937.3 498.2 937 498.1Q936.6 497.9 936.3 497.7Q935.9 497.4 935.6 497.1Q935.3 496.7 935 496.3Q934.6 496.6 934.2 497Q933.7 497.3 933.2 497.6Q932.6 497.9 931.9 498Q931.3 498.2 930.5 498.2Q929.5 498.2 928.7 498Q927.9 497.7 927.4 497.3Q926.8 496.8 926.5 496.1Q926.2 495.5 926.2 494.6Q926.2 493.2 927 492.3Q927.7 491.3 929.1 490.7Q928.9 490.5 928.6 490.3Q928.3 490 928.1 489.7Q927.9 489.3 927.8 488.9Q927.7 488.5 927.7 488.1Q927.7 487.4 927.9 486.8Q928.2 486.3 928.6 485.9Q929 485.6 929.6 485.4Q930.2 485.2 930.9 485.2Q931.6 485.2 932.2 485.4Q932.7 485.6 933.2 485.9Q933.6 486.3 933.8 486.8Q934 487.3 934 487.9Q934 488.9 933.4 489.6Q932.8 490.3 931.6 490.8Q932.2 491 932.7 491.4Q933.2 491.7 933.6 492.1Q934 492.6 934.4 493.1Q934.8 493.5 935.1 494.1Q935.8 493.1 936.2 491.9Q936.5 490.7 936.5 489.4Q936.5 489 936.5 488.7Q936.5 488.4 936.4 488.1H937.8Q937.9 488.4 937.9 488.7Q937.9 489 937.9 489.3Q937.9 490.1 937.7 490.9Q937.6 491.7 937.3 492.5Q937 493.3 936.6 493.9Q936.3 494.6 935.9 495.2Q936.2 495.6 936.4 495.9Q936.7 496.2 936.9 496.5Q937.2 496.7 937.5 496.8Q937.7 496.9 938.1 496.9Q938.4 496.9 938.6 496.8Q938.9 496.7 939.2 496.6V498Q938.9 498.1 938.5 498.1Q938.2 498.2 937.8 498.2ZM930.5 497Q931.1 497 931.7 496.8Q932.3 496.7 932.7 496.4Q933.2 496.2 933.6 495.9Q934 495.5 934.3 495.2Q933.8 494.4 933.3 493.8Q932.9 493.2 932.4 492.7Q931.9 492.3 931.4 492Q930.9 491.7 930.2 491.4Q929.7 491.6 929.2 491.9Q928.7 492.2 928.4 492.5Q928 492.9 927.9 493.4Q927.7 493.9 927.7 494.5Q927.7 495.1 927.9 495.6Q928.1 496 928.5 496.3Q928.9 496.6 929.4 496.8Q929.9 497 930.5 497ZM932.7 488Q932.7 487.5 932.5 487.2Q932.3 486.9 932.1 486.7Q931.8 486.5 931.5 486.4Q931.2 486.3 930.9 486.3Q930.1 486.3 929.6 486.8Q929 487.3 929 488.1Q929 488.4 929.1 488.7Q929.3 489.1 929.4 489.3Q929.6 489.6 929.9 489.8Q930.2 490 930.5 490.2Q931.6 489.8 932.1 489.3Q932.7 488.8 932.7 488Z M955.6 498H954.1V492.3H947.6V498H946.1V485.4H947.6V490.9H954.1V485.4H955.6Z M965.2 498H963.7V496.6H963.7Q962.7 498.2 960.9 498.2Q959.6 498.2 958.8 497.5Q958.1 496.8 958.1 495.6Q958.1 493.1 961 492.7L963.7 492.3Q963.7 490 961.9 490Q960.2 490 958.9 491.1V489.6Q960.3 488.8 962 488.8Q965.2 488.8 965.2 492.1ZM963.7 493.4 961.6 493.7Q960.5 493.9 960 494.2Q959.5 494.6 959.5 495.5Q959.5 496.2 960 496.6Q960.5 497 961.3 497Q962.3 497 963 496.2Q963.7 495.5 963.7 494.3Z M975.3 498H973.9V492.9Q973.9 490 971.8 490Q970.7 490 970 490.8Q969.3 491.6 969.3 492.9V498H967.9V489H969.3V490.5H969.4Q970.4 488.8 972.3 488.8Q973.8 488.8 974.6 489.7Q975.3 490.7 975.3 492.5Z M985.7 498H984.3V496.5H984.3Q983.3 498.2 981.2 498.2Q979.5 498.2 978.5 497Q977.4 495.8 977.4 493.7Q977.4 491.5 978.6 490.1Q979.7 488.8 981.6 488.8Q983.4 488.8 984.3 490.2H984.3V484.7H985.7ZM984.3 493.9V492.6Q984.3 491.5 983.6 490.8Q982.9 490 981.8 490Q980.4 490 979.7 491Q978.9 491.9 978.9 493.6Q978.9 495.2 979.7 496.1Q980.4 497 981.6 497Q982.8 497 983.6 496.1Q984.3 495.3 984.3 493.9Z M988.1 497.7V496.1Q989.3 497 990.7 497Q992.6 497 992.6 495.7Q992.6 495.4 992.4 495.1Q992.3 494.9 992 494.7Q991.7 494.5 991.4 494.3Q991 494.2 990.6 494Q990 493.8 989.5 493.5Q989.1 493.3 988.7 493Q988.4 492.7 988.3 492.3Q988.1 491.9 988.1 491.4Q988.1 490.8 988.4 490.3Q988.7 489.8 989.2 489.5Q989.7 489.1 990.3 489Q990.9 488.8 991.6 488.8Q992.8 488.8 993.7 489.2V490.7Q992.7 490 991.4 490Q991 490 990.7 490.1Q990.3 490.2 990.1 490.4Q989.9 490.5 989.7 490.8Q989.6 491 989.6 491.3Q989.6 491.6 989.7 491.9Q989.9 492.1 990.1 492.3Q990.4 492.5 990.7 492.6Q991.1 492.8 991.5 492.9Q992.1 493.2 992.6 493.4Q993.1 493.6 993.4 494Q993.7 494.3 993.9 494.7Q994.1 495 994.1 495.6Q994.1 496.3 993.8 496.8Q993.5 497.2 993 497.6Q992.5 497.9 991.9 498.1Q991.2 498.2 990.5 498.2Q989.1 498.2 988.1 497.7Z M1000.9 493.6H996.1V492.4H1000.9Z M1008.8 498.2Q1006.1 498.2 1004.5 496.4Q1002.9 494.7 1002.9 491.8Q1002.9 488.8 1004.5 487Q1006.2 485.2 1009 485.2Q1011.6 485.2 1013.2 486.9Q1014.8 488.7 1014.8 491.5Q1014.8 494.6 1013.2 496.4Q1011.5 498.2 1008.8 498.2ZM1008.9 486.5Q1006.9 486.5 1005.7 488Q1004.4 489.4 1004.4 491.7Q1004.4 494 1005.6 495.5Q1006.8 496.9 1008.8 496.9Q1010.8 496.9 1012 495.5Q1013.2 494.2 1013.2 491.7Q1013.2 489.2 1012.1 487.9Q1010.9 486.5 1008.9 486.5Z M1024.5 498H1023.1V492.9Q1023.1 490 1021 490Q1019.9 490 1019.2 490.8Q1018.5 491.6 1018.5 492.9V498H1017.1V489H1018.5V490.5H1018.5Q1019.6 488.8 1021.5 488.8Q1023 488.8 1023.8 489.7Q1024.5 490.7 1024.5 492.5Z" fill="#F59E0B"/>
  <!-- footer -->
  <path d="M60.3 609V614H58.7V600.7H62.4Q64.5 600.7 65.7 601.7Q66.9 602.8 66.9 604.7Q66.9 606.6 65.6 607.8Q64.3 609 62.1 609ZM60.3 602.1V607.6H61.9Q63.5 607.6 64.4 606.8Q65.2 606.1 65.2 604.7Q65.2 602.1 62.1 602.1Z M70.7 614H69.2V599.9H70.7Z M80.6 614H79.1V612.5H79Q78 614.2 76.1 614.2Q74.7 614.2 73.9 613.5Q73.1 612.7 73.1 611.5Q73.1 608.8 76.2 608.4L79.1 608Q79.1 605.6 77.1 605.6Q75.4 605.6 74 606.7V605.2Q75.4 604.3 77.2 604.3Q80.6 604.3 80.6 607.8ZM79.1 609.2 76.8 609.5Q75.7 609.7 75.2 610Q74.6 610.4 74.6 611.4Q74.6 612.1 75.1 612.5Q75.6 612.9 76.5 612.9Q77.6 612.9 78.3 612.1Q79.1 611.4 79.1 610.1Z M91.3 614H89.8V608.6Q89.8 605.6 87.6 605.6Q86.5 605.6 85.7 606.4Q85 607.3 85 608.6V614H83.4V604.5H85V606.1H85Q86.1 604.3 88.1 604.3Q89.7 604.3 90.5 605.3Q91.3 606.3 91.3 608.2Z M102.1 614H100.6V608.6Q100.6 605.6 98.4 605.6Q97.2 605.6 96.5 606.4Q95.7 607.3 95.7 608.6V614H94.2V604.5H95.7V606.1H95.8Q96.8 604.3 98.9 604.3Q100.4 604.3 101.3 605.3Q102.1 606.3 102.1 608.2Z M105.7 602.1Q105.3 602.1 105 601.8Q104.8 601.5 104.8 601.1Q104.8 600.7 105 600.4Q105.3 600.1 105.7 600.1Q106.2 600.1 106.4 600.4Q106.7 600.7 106.7 601.1Q106.7 601.5 106.4 601.8Q106.2 602.1 105.7 602.1ZM106.5 614H105V604.5H106.5Z M117.4 614H115.9V608.6Q115.9 605.6 113.7 605.6Q112.6 605.6 111.8 606.4Q111.1 607.3 111.1 608.6V614H109.6V604.5H111.1V606.1H111.1Q112.2 604.3 114.2 604.3Q115.8 604.3 116.6 605.3Q117.4 606.3 117.4 608.2Z M128.4 613.2Q128.4 618.5 123.4 618.5Q121.6 618.5 120.3 617.8V616.3Q121.9 617.2 123.4 617.2Q126.9 617.2 126.9 613.4V612.4H126.9Q125.8 614.2 123.6 614.2Q121.8 614.2 120.7 613Q119.7 611.7 119.7 609.6Q119.7 607.1 120.8 605.7Q122 604.3 124 604.3Q125.9 604.3 126.9 605.8H126.9V604.5H128.4ZM126.9 609.7V608.3Q126.9 607.2 126.1 606.4Q125.4 605.6 124.2 605.6Q122.8 605.6 122 606.6Q121.2 607.6 121.2 609.5Q121.2 611 122 612Q122.7 612.9 124 612.9Q125.3 612.9 126.1 612Q126.9 611.1 126.9 609.7Z M137.2 609.3Q136.8 609.3 136.5 609Q136.2 608.7 136.2 608.2Q136.2 607.8 136.5 607.5Q136.8 607.2 137.2 607.2Q137.7 607.2 138 607.5Q138.3 607.8 138.3 608.2Q138.3 608.7 138 609Q137.7 609.3 137.2 609.3Z M153.3 614H146.2V600.7H153V602.1H147.8V606.5H152.6V607.9H147.8V612.6H153.3Z M162.6 604.5 159.4 609.3 162.5 614H160.7L158.9 610.9Q158.7 610.6 158.5 610.2H158.4Q158.4 610.3 158 610.9L156.1 614H154.3L157.6 609.3L154.5 604.5H156.2L158.1 607.7Q158.3 608.1 158.5 608.5H158.5L160.9 604.5Z M172 609.6H165.3Q165.3 611.2 166.1 612.1Q167 612.9 168.4 612.9Q170 612.9 171.3 611.9V613.3Q170.1 614.2 168 614.2Q166 614.2 164.9 612.9Q163.7 611.6 163.7 609.3Q163.7 607.1 165 605.7Q166.2 604.3 168.1 604.3Q170 604.3 171 605.5Q172 606.7 172 608.8ZM170.4 608.3Q170.4 607 169.8 606.3Q169.2 605.6 168.1 605.6Q167 605.6 166.2 606.3Q165.5 607.1 165.3 608.3Z M180.8 613.6Q179.7 614.2 178.2 614.2Q176.1 614.2 174.9 612.9Q173.6 611.6 173.6 609.5Q173.6 607.1 175 605.7Q176.3 604.3 178.6 604.3Q179.8 604.3 180.8 604.7V606.3Q179.7 605.6 178.5 605.6Q177.1 605.6 176.1 606.6Q175.2 607.6 175.2 609.3Q175.2 611 176.1 612Q177 612.9 178.4 612.9Q179.7 612.9 180.8 612.1Z M190.8 614H189.2V612.5H189.2Q188.2 614.2 186.3 614.2Q182.9 614.2 182.9 610.2V604.5H184.4V609.9Q184.4 612.9 186.7 612.9Q187.8 612.9 188.5 612.1Q189.2 611.3 189.2 610V604.5H190.8Z M198.2 613.9Q197.7 614.2 196.8 614.2Q194.3 614.2 194.3 611.4V605.8H192.7V604.5H194.3V602.2L195.8 601.7V604.5H198.2V605.8H195.8V611.2Q195.8 612.1 196.2 612.5Q196.5 612.9 197.2 612.9Q197.8 612.9 198.2 612.6Z M201 602.1Q200.6 602.1 200.3 601.8Q200.1 601.5 200.1 601.1Q200.1 600.7 200.3 600.4Q200.6 600.1 201 600.1Q201.5 600.1 201.7 600.4Q202 600.7 202 601.1Q202 601.5 201.7 601.8Q201.5 602.1 201 602.1ZM201.8 614H200.3V604.5H201.8Z M208.8 614.2Q206.7 614.2 205.5 612.9Q204.2 611.6 204.2 609.4Q204.2 607 205.5 605.6Q206.8 604.3 209.1 604.3Q211.2 604.3 212.4 605.6Q213.6 606.9 213.6 609.2Q213.6 611.5 212.3 612.9Q211 614.2 208.8 614.2ZM208.9 605.6Q207.5 605.6 206.6 606.6Q205.8 607.6 205.8 609.3Q205.8 611 206.6 612Q207.5 612.9 208.9 612.9Q210.4 612.9 211.2 612Q212 611 212 609.3Q212 607.5 211.2 606.5Q210.4 605.6 208.9 605.6Z M223.9 614H222.4V608.6Q222.4 605.6 220.2 605.6Q219 605.6 218.3 606.4Q217.5 607.3 217.5 608.6V614H216V604.5H217.5V606.1H217.6Q218.6 604.3 220.7 604.3Q222.2 604.3 223.1 605.3Q223.9 606.3 223.9 608.2Z M232.5 609.3Q232.1 609.3 231.8 609Q231.5 608.7 231.5 608.2Q231.5 607.8 231.8 607.5Q232.1 607.2 232.5 607.2Q232.9 607.2 233.2 607.5Q233.5 607.8 233.5 608.2Q233.5 608.7 233.2 609Q232.9 609.3 232.5 609.3Z M251 614H249.2L246.9 610.3Q246.6 609.8 246.3 609.4Q246.1 609 245.8 608.8Q245.5 608.6 245.1 608.4Q244.8 608.3 244.3 608.3H243V614H241.5V600.7H245.5Q246.3 600.7 247.1 600.9Q247.8 601.1 248.3 601.6Q248.9 602 249.2 602.7Q249.5 603.3 249.5 604.2Q249.5 604.9 249.3 605.5Q249.1 606.1 248.7 606.6Q248.3 607 247.8 607.3Q247.2 607.6 246.5 607.8V607.9Q246.9 608 247.1 608.2Q247.4 608.4 247.6 608.6Q247.8 608.9 248 609.2Q248.3 609.6 248.5 610ZM243 602.1V606.9H245.2Q245.7 606.9 246.2 606.8Q246.7 606.6 247.1 606.2Q247.5 605.9 247.7 605.4Q247.9 605 247.9 604.4Q247.9 603.3 247.2 602.7Q246.5 602.1 245.2 602.1Z M260.3 609.6H253.6Q253.6 611.2 254.4 612.1Q255.2 612.9 256.7 612.9Q258.3 612.9 259.6 611.9V613.3Q258.4 614.2 256.3 614.2Q254.3 614.2 253.1 612.9Q252 611.6 252 609.3Q252 607.1 253.2 605.7Q254.5 604.3 256.4 604.3Q258.2 604.3 259.3 605.5Q260.3 606.7 260.3 608.8ZM258.7 608.3Q258.7 607 258.1 606.3Q257.5 605.6 256.3 605.6Q255.3 605.6 254.5 606.3Q253.8 607.1 253.6 608.3Z M270 604.5 266.3 614H264.8L261.2 604.5H262.8L265.2 611.4Q265.5 612.2 265.6 612.7H265.6Q265.7 612 265.9 611.4L268.4 604.5Z M272.5 602.1Q272 602.1 271.8 601.8Q271.5 601.5 271.5 601.1Q271.5 600.7 271.8 600.4Q272 600.1 272.5 600.1Q272.9 600.1 273.2 600.4Q273.5 600.7 273.5 601.1Q273.5 601.5 273.2 601.8Q272.9 602.1 272.5 602.1ZM273.2 614H271.7V604.5H273.2Z M283.9 609.6H277.2Q277.2 611.2 278.1 612.1Q278.9 612.9 280.3 612.9Q281.9 612.9 283.3 611.9V613.3Q282 614.2 279.9 614.2Q277.9 614.2 276.8 612.9Q275.6 611.6 275.6 609.3Q275.6 607.1 276.9 605.7Q278.1 604.3 280 604.3Q281.9 604.3 282.9 605.5Q283.9 606.7 283.9 608.8ZM282.4 608.3Q282.3 607 281.7 606.3Q281.1 605.6 280 605.6Q278.9 605.6 278.2 606.3Q277.4 607.1 277.2 608.3Z M298.2 604.5 295.3 614H293.8L291.8 607.2Q291.7 606.8 291.7 606.3H291.6Q291.6 606.7 291.4 607.2L289.3 614H287.8L284.9 604.5H286.5L288.5 611.6Q288.6 612 288.6 612.5H288.7Q288.7 612.1 288.8 611.6L291 604.5H292.4L294.4 611.7Q294.5 612 294.5 612.5H294.6Q294.6 612.2 294.8 611.7L296.7 604.5Z" fill="#64748B"/>
  <path d="M1137.4 604.5 1133.6 614.0H1132.1L1128.5 604.5H1130.2L1132.6 611.4Q1132.9 612.2 1132.9 612.7H1133.0Q1133.1 612.0 1133.3 611.4L1135.8 604.5Z M1144.2 614.0H1142.7V602.5Q1142.5 602.7 1142.2 602.9Q1141.8 603.1 1141.4 603.4Q1141.0 603.6 1140.5 603.8Q1140.0 604.0 1139.6 604.1V602.5Q1140.1 602.4 1140.7 602.2Q1141.2 601.9 1141.8 601.6Q1142.3 601.3 1142.8 601.0Q1143.3 600.7 1143.6 600.4H1144.2Z M1149.8 614.2Q1149.4 614.2 1149.1 613.9Q1148.8 613.6 1148.8 613.2Q1148.8 612.7 1149.1 612.4Q1149.4 612.1 1149.8 612.1Q1150.2 612.1 1150.5 612.4Q1150.8 612.7 1150.8 613.2Q1150.8 613.6 1150.5 613.9Q1150.2 614.2 1149.8 614.2Z M1159.0 604.2Q1159.0 603.6 1158.8 603.1Q1158.6 602.7 1158.3 602.4Q1158.0 602.1 1157.5 601.9Q1157.1 601.8 1156.6 601.8Q1156.1 601.8 1155.7 601.9Q1155.3 602.0 1154.9 602.2Q1154.5 602.4 1154.1 602.7Q1153.7 603.0 1153.4 603.4V601.8Q1154.0 601.1 1154.8 600.8Q1155.6 600.5 1156.7 600.5Q1157.6 600.5 1158.3 600.7Q1159.0 600.9 1159.5 601.4Q1160.0 601.9 1160.3 602.5Q1160.6 603.2 1160.6 604.1Q1160.6 604.8 1160.4 605.5Q1160.2 606.1 1159.8 606.7Q1159.5 607.3 1158.9 607.8Q1158.3 608.3 1157.6 608.8Q1156.7 609.5 1156.1 610.0Q1155.4 610.4 1155.1 610.9Q1154.7 611.3 1154.6 611.7Q1154.4 612.1 1154.4 612.6H1161.1V614.0H1152.9V613.3Q1152.9 612.5 1153.0 611.8Q1153.2 611.2 1153.7 610.6Q1154.1 610.0 1154.8 609.4Q1155.5 608.9 1156.5 608.1Q1157.2 607.6 1157.7 607.1Q1158.2 606.7 1158.5 606.2Q1158.8 605.7 1158.9 605.2Q1159.0 604.7 1159.0 604.2Z M1164.2 614.2Q1163.7 614.2 1163.4 613.9Q1163.1 613.6 1163.1 613.2Q1163.1 612.7 1163.4 612.4Q1163.7 612.1 1164.2 612.1Q1164.6 612.1 1164.9 612.4Q1165.2 612.7 1165.2 613.2Q1165.2 613.6 1164.9 613.9Q1164.6 614.2 1164.2 614.2Z M1175.7 607.3Q1175.7 609.0 1175.4 610.3Q1175.1 611.5 1174.5 612.4Q1173.9 613.3 1173.1 613.8Q1172.3 614.2 1171.2 614.2Q1170.2 614.2 1169.4 613.8Q1168.6 613.4 1168.1 612.5Q1167.6 611.7 1167.3 610.4Q1167.0 609.2 1167.0 607.6Q1167.0 605.9 1167.3 604.5Q1167.6 603.2 1168.2 602.3Q1168.7 601.4 1169.6 600.9Q1170.4 600.5 1171.5 600.5Q1175.7 600.5 1175.7 607.3ZM1174.1 607.4Q1174.1 601.8 1171.4 601.8Q1168.6 601.8 1168.6 607.5Q1168.6 612.9 1171.4 612.9Q1174.1 612.9 1174.1 607.4Z M1183.7 609.3Q1183.3 609.3 1183.0 609.0Q1182.7 608.7 1182.7 608.2Q1182.7 607.8 1183.0 607.5Q1183.3 607.2 1183.7 607.2Q1184.2 607.2 1184.5 607.5Q1184.8 607.8 1184.8 608.2Q1184.8 608.7 1184.5 609.0Q1184.2 609.3 1183.7 609.3Z M1206.3 614.0H1204.7V605.1Q1204.7 604.0 1204.9 602.5H1204.8Q1204.6 603.4 1204.4 603.8L1199.9 614.0H1199.1L1194.6 603.9Q1194.4 603.4 1194.2 602.5H1194.2Q1194.2 603.3 1194.2 605.1V614.0H1192.7V600.7H1194.8L1198.9 610.0Q1199.3 611.0 1199.5 611.6H1199.5Q1199.9 610.5 1200.2 609.9L1204.3 600.7H1206.3Z M1211.3 614.0H1209.8V600.7H1211.3Z M1222.7 602.1H1218.9V614.0H1217.3V602.1H1213.5V600.7H1222.7Z" fill="#64748B"/>
</svg>
